<svg id="svg" version="1.1" width="512" height="512" xmlns="http://www.w3.org/2000/svg"><path d="M31.465 16.947 C 26.642 18.913,26.499 19.752,26.522 45.904 C 26.546 72.635,26.764 73.831,32.014 76.006 C 33.885 76.781,35.869 78.784,37.041 81.079 C 38.105 83.166,40.353 85.686,42.036 86.680 C 43.719 87.674,46.162 90.307,47.465 92.531 C 48.768 94.754,50.920 97.155,52.248 97.865 C 53.575 98.575,55.482 100.584,56.486 102.328 C 57.490 104.073,60.720 108.200,63.665 111.500 C 75.520 124.783,79.721 129.417,84.500 134.485 C 87.250 137.401,90.329 140.987,91.342 142.453 C 92.355 143.919,94.289 145.540,95.640 146.053 C 97.019 146.578,98.734 148.513,99.550 150.464 C 100.460 152.644,102.492 154.793,104.994 156.221 C 107.189 157.474,108.988 159.002,108.992 159.615 C 109.005 161.474,113.113 166.092,115.590 167.034 C 116.871 167.521,118.863 169.772,120.018 172.035 C 121.399 174.741,123.259 176.628,125.450 177.544 C 127.677 178.474,129.148 179.987,129.887 182.104 C 131.129 185.668,133.605 187.921,136.330 187.968 C 137.530 187.989,138.713 189.406,139.763 192.078 C 140.914 195.008,142.367 196.628,144.927 197.833 C 147.240 198.922,149.119 200.848,150.284 203.323 C 151.489 205.881,153.215 207.610,155.530 208.577 C 157.865 209.552,159.457 211.159,160.453 213.542 C 161.397 215.800,163.049 217.538,165.056 218.382 C 166.885 219.151,169.090 221.321,170.357 223.599 C 171.592 225.821,173.881 228.099,175.676 228.893 C 177.623 229.754,179.449 231.669,180.459 233.910 C 181.467 236.144,183.515 238.296,185.797 239.519 L 189.500 241.503 190.000 335.502 C 190.275 387.201,190.887 430.100,191.360 430.833 C 191.833 431.566,194.202 433.015,196.624 434.053 C 199.237 435.173,201.386 436.884,201.909 438.261 C 203.168 441.571,204.774 442.577,211.000 443.956 C 214.025 444.626,217.206 445.365,218.070 445.597 C 218.933 445.830,220.378 447.569,221.280 449.461 C 222.580 452.187,223.811 453.133,227.210 454.018 C 230.112 454.774,232.795 456.520,235.503 459.417 C 238.806 462.949,240.382 463.830,244.503 464.448 C 250.310 465.319,253.000 466.552,253.000 468.344 C 253.000 471.371,255.918 473.262,263.058 474.864 C 270.036 476.430,270.614 476.766,272.333 480.269 C 273.567 482.782,275.039 484.193,276.833 484.583 C 282.373 485.787,284.865 487.259,286.000 490.000 C 287.791 494.324,291.901 495.500,305.218 495.500 C 316.078 495.500,317.103 495.333,319.218 493.222 L 321.500 490.945 322.000 366.222 L 322.500 241.500 325.898 239.804 C 327.767 238.870,330.242 236.429,331.398 234.379 C 332.554 232.329,334.850 229.910,336.500 229.005 C 338.150 228.100,340.546 225.478,341.825 223.179 C 343.252 220.614,344.865 219.000,346.002 219.000 C 347.960 219.000,351.500 215.151,352.532 211.901 C 352.869 210.837,354.670 209.329,356.533 208.551 C 358.783 207.610,360.523 205.855,361.716 203.323 C 362.881 200.848,364.760 198.922,367.073 197.833 C 369.633 196.628,371.086 195.008,372.237 192.078 C 373.287 189.406,374.470 187.989,375.670 187.968 C 378.388 187.921,380.870 185.671,382.102 182.137 C 382.808 180.112,384.418 178.421,386.647 177.363 C 388.761 176.360,390.863 174.229,392.067 171.869 C 393.363 169.329,395.237 167.510,397.557 166.541 C 399.944 165.543,401.428 164.069,402.160 161.971 C 402.799 160.139,404.854 157.855,407.192 156.379 C 409.459 154.948,411.587 152.613,412.183 150.906 C 412.853 148.982,414.623 147.213,417.182 145.907 C 419.757 144.593,421.511 142.834,422.192 140.880 C 422.789 139.166,424.895 136.829,427.091 135.442 C 429.210 134.105,431.584 131.771,432.368 130.255 C 433.152 128.740,435.640 126.016,437.897 124.203 C 440.153 122.389,442.000 120.292,442.000 119.542 C 442.000 118.792,443.237 117.115,444.750 115.816 C 446.262 114.517,449.271 111.215,451.435 108.477 C 456.737 101.772,464.951 92.481,470.423 87.000 C 472.894 84.525,475.378 81.253,475.942 79.728 C 476.662 77.780,477.886 76.773,480.062 76.338 C 482.117 75.927,483.526 74.842,484.257 73.109 C 484.951 71.465,485.384 61.356,485.429 45.778 C 485.499 21.339,485.474 21.029,483.222 18.778 L 480.945 16.500 257.222 16.309 C 134.175 16.204,32.584 16.491,31.465 16.947 " stroke="none" fill="#64A4FD" fill-rule="evenodd"/></svg>
