<svg id="svg" version="1.1" xmlns="http://www.w3.org/2000/svg" xmlns:xlink="http://www.w3.org/1999/xlink" width="400" height="449.1132332878581" viewBox="0, 0, 400,449.1132332878581"><g id="svgg"><path id="path0" d="M197.732 0.176 C 197.376 0.532,197.546 0.819,198.113 0.819 C 198.430 0.819,198.634 0.676,198.573 0.495 C 198.440 0.096,197.985 -0.077,197.732 0.176 M197.301 2.154 C 196.942 2.251,196.549 2.596,196.429 2.921 C 196.214 3.503,196.227 3.506,197.315 3.122 C 197.923 2.908,198.714 2.806,199.074 2.897 C 199.675 3.048,200.016 2.650,199.523 2.373 C 199.041 2.103,197.905 1.991,197.301 2.154 M202.183 3.933 C 202.183 4.048,202.423 4.346,202.717 4.595 C 203.011 4.844,203.431 5.539,203.649 6.139 C 204.816 9.344,205.059 9.823,205.522 9.823 C 206.460 9.823,204.586 5.983,202.853 4.354 C 202.484 4.008,202.183 3.819,202.183 3.933 M196.147 4.489 C 196.080 4.557,195.304 4.664,194.425 4.726 C 192.545 4.860,191.421 6.017,190.603 8.663 C 190.083 10.347,191.545 9.279,192.555 7.238 C 193.464 5.400,194.110 4.660,194.481 5.031 C 194.654 5.204,192.915 7.913,192.631 7.913 C 192.055 7.913,191.816 9.601,192.371 9.747 C 192.889 9.882,192.893 9.909,192.435 10.249 C 192.042 10.540,192.011 10.706,192.267 11.126 C 192.535 11.566,188.985 19.810,168.551 66.190 C 155.334 96.191,112.198 194.092,72.695 283.749 L 0.869 446.761 1.458 447.930 L 2.046 449.098 53.620 449.106 C 110.350 449.114,106.877 449.213,107.194 447.581 C 107.249 447.298,107.391 447.005,107.509 446.930 C 107.928 446.665,106.974 444.601,106.058 443.793 C 104.988 442.848,104.755 442.454,103.999 440.302 C 103.668 439.359,102.961 438.188,102.236 437.382 C 100.748 435.727,100.121 433.841,101.052 433.820 C 101.515 433.810,101.190 433.389,99.493 431.805 C 97.467 429.914,97.328 429.708,96.957 428.067 C 96.613 426.541,96.390 426.164,95.120 424.966 C 93.837 423.754,93.623 423.388,93.206 421.692 C 92.811 420.084,92.529 419.566,91.422 418.417 C 90.467 417.426,89.974 416.619,89.622 415.466 C 89.297 414.403,88.735 413.433,87.924 412.531 C 87.059 411.568,86.561 410.678,86.182 409.415 C 85.745 407.958,85.436 407.467,84.423 406.620 C 83.308 405.689,83.115 405.338,82.348 402.865 C 81.883 401.364,81.128 399.421,80.671 398.547 C 79.868 397.009,79.853 396.919,80.234 395.818 C 81.042 393.479,79.969 393.585,102.729 393.612 C 129.515 393.645,129.577 393.645,227.694 393.615 C 291.389 393.595,313.821 393.668,314.330 393.898 C 314.788 394.105,315.235 394.734,315.671 395.785 L 316.324 397.362 315.461 399.022 C 314.987 399.935,314.223 401.691,313.763 402.924 C 313.121 404.647,312.647 405.434,311.715 406.322 C 310.937 407.063,310.303 408.010,309.946 408.964 C 309.584 409.934,309.009 410.785,308.294 411.412 C 307.185 412.384,305.775 414.494,305.718 415.267 C 305.701 415.499,305.666 415.911,305.640 416.182 C 305.614 416.454,305.038 417.181,304.359 417.799 C 303.444 418.632,303.019 419.288,302.713 420.342 C 302.436 421.292,301.904 422.181,301.101 423.031 C 300.269 423.912,299.723 424.840,299.313 426.071 C 298.927 427.232,298.486 428.004,298.033 428.314 C 296.558 429.321,296.069 430.006,295.527 431.825 C 295.083 433.316,294.711 433.957,293.729 434.920 C 292.928 435.706,292.296 436.668,291.938 437.645 C 291.572 438.645,291.018 439.476,290.298 440.109 C 288.658 441.550,287.030 446.259,287.794 447.354 C 287.904 447.512,288.486 447.942,289.086 448.309 L 290.177 448.977 343.929 449.058 C 394.283 449.133,397.737 449.109,398.574 448.670 C 399.426 448.223,399.867 447.383,399.796 446.342 C 399.769 445.955,370.967 382.091,225.448 59.754 C 204.575 13.519,203.128 10.217,203.650 10.015 C 204.427 9.712,204.417 9.764,203.961 8.471 C 203.518 7.215,202.088 5.097,201.846 5.339 C 201.765 5.420,201.286 5.235,200.781 4.927 C 199.935 4.411,196.546 4.091,196.147 4.489 M217.163 219.489 L 266.060 269.946 265.295 270.679 C 264.874 271.083,237.947 295.083,205.457 324.013 C 172.967 352.942,145.858 377.116,145.214 377.732 L 144.044 378.852 146.207 374.553 C 167.552 332.133,174.653 240.018,161.914 170.805 C 160.983 165.745,160.062 161.473,159.698 160.523 C 159.484 159.967,159.187 159.662,217.163 219.489 M0.341 448.450 C -0.134 448.961,-0.087 449.113,0.546 449.113 C 1.120 449.113,1.215 448.909,0.883 448.393 C 0.737 448.167,0.589 448.182,0.341 448.450 " stroke="none" fill="#000000" fill-rule="evenodd"></path></g></svg>