<svg id="svg" version="1.1" width="512" height="512" xmlns="http://www.w3.org/2000/svg"><path d="M67.492 1.583 C 66.943 2.453,64.044 3.800,61.050 4.577 C 57.929 5.387,54.304 7.204,52.553 8.837 C 50.874 10.403,47.925 12.305,46.000 13.064 C 44.075 13.822,40.869 16.030,38.875 17.971 C 36.881 19.912,34.181 22.485,32.875 23.689 C 26.384 29.670,22.950 33.993,20.713 39.000 C 19.361 42.025,17.334 45.044,16.207 45.709 C 14.839 46.516,13.776 48.762,13.006 52.469 C 12.373 55.522,10.775 59.303,9.455 60.871 C 5.038 66.121,4.781 68.108,4.781 97.000 C 4.781 125.892,5.038 127.879,9.455 133.129 C 10.775 134.697,12.358 138.409,12.975 141.378 C 13.620 144.486,14.984 147.566,16.189 148.638 C 17.341 149.662,19.260 152.588,20.453 155.139 C 21.646 157.690,24.170 161.351,26.061 163.273 C 27.953 165.195,29.950 167.250,30.500 167.841 C 34.426 172.053,42.195 179.000,42.980 179.000 C 43.504 179.000,45.492 180.559,47.397 182.463 C 49.302 184.368,52.129 186.205,53.680 186.545 C 58.153 187.525,62.000 189.168,62.000 190.098 C 62.000 192.300,67.653 194.334,75.882 195.093 C 80.724 195.540,87.024 196.827,89.880 197.953 C 97.149 200.818,113.743 200.861,120.917 198.033 C 123.661 196.951,131.074 195.433,137.388 194.659 C 151.414 192.941,163.308 194.246,170.219 198.261 C 172.574 199.629,177.142 201.508,180.372 202.437 C 183.601 203.366,187.870 204.998,189.857 206.063 C 194.727 208.674,197.616 208.516,199.570 205.533 C 201.550 202.512,200.718 195.860,197.856 191.815 C 196.811 190.338,195.479 186.547,194.895 183.391 C 194.312 180.234,192.522 175.192,190.917 172.185 C 187.081 164.997,186.901 158.381,190.449 155.048 C 191.796 153.782,193.590 150.717,194.435 148.236 C 195.281 145.755,197.070 142.286,198.412 140.527 C 199.928 138.539,201.456 134.334,202.450 129.414 C 203.330 125.061,204.995 119.260,206.151 116.522 C 207.728 112.784,208.443 108.208,209.020 98.148 C 209.797 84.613,209.271 80.062,206.588 77.097 C 204.830 75.155,203.058 67.989,203.024 62.684 C 202.997 58.391,201.560 55.123,198.856 53.203 C 197.851 52.490,196.332 49.512,195.481 46.584 C 194.444 43.015,192.792 40.222,190.467 38.106 C 188.560 36.371,187.000 34.472,187.000 33.886 C 187.000 32.498,168.125 14.026,164.380 11.749 C 162.796 10.786,160.062 8.935,158.305 7.635 C 156.547 6.336,153.239 4.974,150.954 4.609 C 147.991 4.135,146.650 3.378,146.282 1.972 C 145.780 0.052,144.743 0.000,107.128 0.000 C 72.975 0.000,68.374 0.184,67.492 1.583 M366.000 1.339 C 366.000 2.914,361.849 4.998,358.703 5.004 C 356.140 5.008,350.000 8.508,350.000 9.965 C 350.000 10.512,348.313 11.824,346.250 12.880 C 344.188 13.936,341.474 16.195,340.220 17.900 C 338.966 19.605,337.330 21.000,336.585 21.000 C 335.840 21.000,334.444 22.199,333.484 23.665 C 331.886 26.103,329.145 29.146,320.976 37.551 C 319.345 39.228,317.301 42.990,316.434 45.910 C 315.555 48.870,313.746 52.175,312.344 53.380 C 310.263 55.171,309.683 56.862,308.970 63.215 C 308.497 67.434,307.298 72.319,306.305 74.069 C 305.312 75.820,303.918 78.310,303.206 79.604 C 302.186 81.459,302.110 85.339,302.847 97.962 C 303.619 111.183,304.154 114.683,305.926 118.083 C 307.106 120.347,308.709 125.529,309.488 129.599 C 310.395 134.343,311.941 138.525,313.793 141.250 C 315.382 143.587,317.192 146.996,317.815 148.825 C 318.438 150.653,320.085 153.500,321.474 155.152 C 325.005 159.348,324.873 165.082,321.083 172.185 C 319.478 175.192,317.691 180.218,317.111 183.355 C 316.516 186.574,314.956 190.502,313.529 192.374 C 310.581 196.239,310.139 202.326,312.557 205.777 C 314.465 208.501,316.933 208.585,321.820 206.092 C 323.877 205.042,328.247 203.411,331.530 202.466 C 334.814 201.521,339.392 199.649,341.705 198.305 C 344.222 196.843,349.332 195.309,354.438 194.482 C 361.831 193.286,364.518 193.304,374.623 194.621 C 381.034 195.456,388.484 197.008,391.177 198.070 C 398.256 200.860,414.904 200.797,422.120 197.953 C 424.976 196.827,431.276 195.540,436.118 195.093 C 444.347 194.334,450.000 192.300,450.000 190.098 C 450.000 189.164,453.846 187.526,458.378 186.530 C 459.961 186.182,462.596 184.557,464.234 182.920 C 465.872 181.282,468.448 179.303,469.958 178.522 C 471.468 177.741,473.435 175.986,474.329 174.621 C 475.223 173.257,477.315 171.337,478.977 170.354 C 480.640 169.372,482.000 168.010,482.000 167.327 C 482.000 166.644,483.595 164.829,485.544 163.293 C 487.492 161.757,489.992 158.475,491.097 156.000 C 492.203 153.525,494.172 150.375,495.473 149.000 C 496.774 147.625,498.521 143.860,499.355 140.633 C 500.189 137.406,501.770 133.806,502.869 132.633 C 506.854 128.379,507.203 125.514,507.210 97.000 C 507.218 68.371,506.799 64.967,502.897 61.957 C 501.651 60.996,500.320 57.886,499.369 53.718 C 498.188 48.538,497.221 46.582,495.096 45.069 C 493.481 43.918,491.830 41.377,491.087 38.895 C 490.392 36.575,488.314 33.062,486.469 31.088 C 476.631 20.561,470.362 15.172,465.447 13.017 C 463.218 12.040,460.065 9.911,458.441 8.287 C 456.524 6.370,453.992 5.095,451.230 4.653 C 448.888 4.278,446.078 3.078,444.986 1.986 C 443.073 0.073,441.576 0.000,404.500 0.000 C 372.995 0.000,366.000 0.243,366.000 1.339 M407.074 37.060 C 407.468 37.852,408.260 41.612,408.834 45.416 C 410.196 54.446,412.332 56.668,421.045 58.122 C 425.041 58.789,433.437 58.953,443.087 58.551 C 456.880 57.978,458.833 58.094,460.050 59.560 C 461.236 60.989,461.163 61.408,459.521 62.608 C 458.474 63.374,455.791 64.010,453.559 64.022 C 449.378 64.045,441.843 66.927,438.825 69.659 C 437.883 70.510,436.826 72.514,436.475 74.112 C 436.125 75.710,435.037 77.445,434.059 77.968 C 433.081 78.492,431.316 81.162,430.138 83.901 C 428.959 86.640,426.646 90.359,424.998 92.164 C 423.349 93.969,422.000 95.812,422.000 96.260 C 422.000 96.708,420.042 98.978,417.649 101.304 C 414.191 104.664,413.155 106.483,412.603 110.161 C 411.576 117.007,412.620 119.766,417.104 122.053 C 419.231 123.138,421.689 125.122,422.567 126.462 C 423.445 127.802,425.814 129.427,427.832 130.073 C 429.849 130.719,432.963 132.340,434.750 133.675 C 436.538 135.010,439.576 136.760,441.500 137.565 C 445.164 139.095,446.256 141.927,443.250 142.101 C 435.623 142.543,429.562 140.653,425.464 136.555 C 424.059 135.150,422.252 134.000,421.448 134.000 C 420.644 134.000,418.985 132.848,417.762 131.441 C 414.796 128.031,405.872 123.000,402.787 123.000 C 397.886 123.000,390.940 125.876,384.930 130.393 C 381.560 132.927,378.390 135.000,377.887 135.000 C 377.384 135.000,375.726 136.394,374.203 138.098 C 372.096 140.456,370.339 141.320,366.848 141.714 C 363.839 142.053,362.004 141.815,361.514 141.022 C 360.554 139.470,369.353 131.486,373.668 129.994 C 375.411 129.392,377.543 127.820,378.407 126.501 C 379.272 125.182,381.938 123.236,384.334 122.176 C 390.613 119.399,393.000 116.458,393.000 111.499 C 393.000 108.221,392.384 106.784,390.000 104.500 C 387.480 102.086,387.000 100.855,387.000 96.813 C 387.000 91.679,388.372 90.363,389.411 94.500 C 389.756 95.875,390.600 97.000,391.287 97.000 C 391.974 97.000,394.715 98.800,397.377 101.000 C 402.954 105.608,404.299 105.850,407.117 102.750 C 415.955 93.028,418.000 90.524,418.000 89.423 C 418.000 88.730,419.774 86.317,421.942 84.060 C 426.304 79.521,427.935 73.568,426.121 68.811 C 424.143 63.624,423.217 63.500,386.500 63.500 C 357.179 63.500,352.102 63.279,349.607 61.897 C 347.348 60.646,347.020 60.098,348.107 59.397 C 348.873 58.904,360.616 58.275,374.202 58.000 C 392.099 57.638,399.249 57.155,400.156 56.246 C 400.864 55.537,401.646 51.196,401.958 46.246 C 402.261 41.436,402.886 36.914,403.346 36.197 C 404.340 34.650,406.075 35.051,407.074 37.060 M109.399 38.500 C 110.005 39.600,111.900 42.119,113.610 44.098 C 115.321 46.077,117.025 49.322,117.398 51.309 C 117.771 53.296,119.377 56.223,120.967 57.813 C 122.600 59.447,124.542 63.053,125.429 66.102 C 126.293 69.071,128.108 72.787,129.461 74.360 C 130.815 75.933,132.655 79.741,133.551 82.822 C 134.446 85.903,136.264 89.713,137.590 91.289 C 138.915 92.864,140.020 94.906,140.044 95.827 C 140.136 99.328,142.880 105.118,145.380 107.084 C 146.981 108.343,148.579 111.184,149.533 114.464 C 150.385 117.398,152.181 120.982,153.523 122.430 C 154.864 123.878,156.691 127.568,157.581 130.631 C 158.472 133.694,160.093 137.093,161.183 138.183 C 163.564 140.564,163.158 141.140,158.960 141.345 C 156.704 141.455,155.454 140.917,154.673 139.500 C 154.067 138.400,152.383 135.700,150.930 133.500 C 149.477 131.300,147.522 127.168,146.586 124.318 C 144.810 118.909,138.783 110.096,136.704 109.868 C 131.413 109.286,76.010 109.533,74.276 110.145 C 72.837 110.654,71.026 113.191,69.150 117.330 C 67.554 120.849,65.781 124.017,65.209 124.371 C 64.638 124.724,62.963 128.171,61.488 132.031 C 59.444 137.380,58.109 139.409,55.874 140.565 C 52.372 142.376,51.000 141.760,51.000 138.375 C 51.000 135.567,52.390 132.483,55.000 129.500 C 55.962 128.400,57.530 125.025,58.484 122.000 C 59.437 118.975,61.456 115.298,62.970 113.829 C 64.485 112.359,66.238 109.110,66.869 106.605 C 67.500 104.100,69.308 100.577,70.888 98.776 C 72.708 96.700,74.186 93.443,74.923 89.884 C 75.663 86.311,76.970 83.437,78.515 81.986 C 79.851 80.731,81.674 77.195,82.565 74.128 C 83.457 71.061,85.449 67.114,86.991 65.357 C 88.548 63.584,90.102 60.353,90.483 58.098 C 90.952 55.322,92.136 53.222,94.220 51.469 C 97.073 49.068,99.856 43.479,99.956 39.950 C 100.075 35.768,107.286 34.661,109.399 38.500 M103.489 54.399 C 99.945 55.933,95.720 61.687,93.500 68.000 C 92.630 70.475,90.824 74.082,89.486 76.015 C 86.583 80.210,83.000 90.202,83.000 94.101 C 83.000 95.634,84.085 98.151,85.411 99.694 L 87.823 102.500 106.395 102.812 L 124.968 103.123 127.484 100.607 C 131.124 96.967,130.971 90.722,127.113 85.447 C 125.525 83.276,123.470 79.250,122.545 76.500 C 121.620 73.750,119.987 70.564,118.917 69.420 C 117.846 68.276,116.139 64.979,115.123 62.093 C 112.333 54.170,109.042 51.994,103.489 54.399 M219.364 86.170 C 215.889 87.852,215.012 91.349,213.926 107.845 C 212.960 122.528,212.687 123.934,209.521 130.500 C 207.665 134.350,205.840 139.465,205.466 141.866 C 204.997 144.873,203.651 147.488,201.142 150.266 L 197.500 154.299 197.500 164.614 C 197.500 176.990,197.984 177.717,207.089 179.033 C 217.094 180.479,246.262 180.260,248.364 178.723 C 251.460 176.460,251.953 170.152,251.903 133.500 C 251.852 96.089,251.309 87.442,248.918 85.928 C 246.963 84.691,221.998 84.894,219.364 86.170 M263.082 85.887 C 260.689 87.471,260.148 96.100,260.097 133.500 C 260.047 170.152,260.540 176.460,263.636 178.723 C 265.738 180.260,294.906 180.479,304.911 179.033 C 314.016 177.717,314.500 176.990,314.500 164.614 L 314.500 154.299 310.858 150.266 C 308.372 147.513,306.867 144.605,306.116 141.103 C 305.510 138.282,303.691 133.349,302.072 130.142 C 299.394 124.838,299.015 122.790,297.880 107.498 C 296.194 84.773,296.915 85.594,278.339 85.224 C 270.728 85.072,263.862 85.371,263.082 85.887 M208.455 191.455 C 205.203 194.706,205.355 198.264,209.029 204.929 C 210.705 207.970,211.775 211.132,211.463 212.117 C 210.841 214.076,204.466 220.000,202.980 220.000 C 202.458 220.000,199.886 218.718,197.265 217.152 C 194.644 215.585,189.950 213.761,186.833 213.098 C 183.467 212.383,180.219 210.947,178.833 209.562 C 175.134 205.866,162.898 203.506,159.298 205.795 C 158.636 206.215,156.716 209.921,155.031 214.030 C 151.606 222.382,150.249 232.408,149.782 252.826 L 149.500 265.152 152.766 268.076 L 156.032 271.000 200.460 271.000 L 244.888 271.000 247.574 268.690 C 251.349 265.443,251.879 260.808,251.889 231.000 C 251.899 200.923,251.181 192.337,248.494 190.372 C 247.070 189.331,242.314 189.000,228.763 189.000 C 211.140 189.000,210.877 189.032,208.455 191.455 M263.103 190.897 C 260.503 193.497,259.688 206.712,260.169 238.526 C 260.556 264.211,260.929 266.659,264.913 269.718 C 266.105 270.633,277.646 270.944,311.234 270.968 L 355.968 271.000 359.234 268.080 L 362.500 265.160 362.216 253.330 C 361.728 232.999,360.375 223.091,356.901 214.388 C 355.169 210.050,353.245 206.169,352.626 205.765 C 349.155 203.500,336.905 205.863,332.987 209.553 C 331.529 210.926,328.172 212.390,324.987 213.040 C 321.969 213.656,317.333 215.475,314.684 217.080 C 312.035 218.686,309.448 220.000,308.936 220.000 C 307.383 220.000,300.000 212.866,300.000 211.365 C 300.000 210.593,301.350 207.432,303.000 204.340 C 306.642 197.516,306.762 194.671,303.545 191.455 C 301.121 189.030,300.871 189.000,283.045 189.000 C 266.661 189.000,264.825 189.175,263.103 190.897 M136.314 202.074 C 131.793 204.971,116.971 206.330,97.385 205.646 C 85.579 205.233,80.839 205.406,79.661 206.291 C 78.776 206.956,77.347 209.525,76.485 212.000 C 75.623 214.475,73.703 218.255,72.219 220.400 C 69.632 224.139,69.483 225.055,68.630 242.563 C 68.140 252.608,68.042 262.029,68.410 263.499 C 68.779 264.969,70.168 267.258,71.495 268.586 L 73.909 271.000 104.086 271.000 L 134.264 271.000 137.431 267.642 C 142.374 262.401,142.767 260.522,145.593 228.626 C 147.303 209.323,147.067 205.522,143.949 202.175 C 141.453 199.496,140.361 199.482,136.314 202.074 M368.051 202.175 C 365.422 204.998,364.591 209.701,365.372 217.342 C 365.718 220.729,366.645 231.445,367.432 241.155 C 368.976 260.215,370.309 264.738,375.607 268.905 C 378.173 270.924,379.341 271.000,407.701 271.000 C 425.974 271.000,437.861 270.610,439.055 269.970 C 440.114 269.404,441.707 267.533,442.597 265.812 C 443.989 263.120,444.119 260.293,443.529 245.591 C 442.771 226.704,441.986 222.203,438.981 219.483 C 437.866 218.474,436.249 215.226,435.389 212.266 C 434.247 208.337,433.189 206.642,431.472 205.989 C 430.178 205.497,422.230 205.345,413.809 205.651 C 395.014 206.334,380.271 204.949,375.598 202.061 C 371.409 199.472,370.558 199.485,368.051 202.175 M20.000 244.818 C 13.220 246.668,13.530 245.434,13.200 271.921 C 12.851 299.827,13.295 301.867,20.424 305.105 C 27.546 308.339,30.430 307.717,36.838 301.561 L 42.500 296.122 42.764 274.311 C 43.054 250.401,42.719 248.610,37.471 246.051 C 34.213 244.463,23.954 243.738,20.000 244.818 M475.600 245.478 C 469.008 247.827,468.773 248.930,469.188 275.623 L 469.500 295.745 473.500 300.256 C 478.358 305.735,481.858 307.447,486.622 306.674 C 491.267 305.920,494.616 303.678,497.044 299.696 C 498.826 296.773,498.993 294.533,498.996 273.473 C 499.000 247.672,498.811 246.875,492.221 245.044 C 487.132 243.631,480.280 243.810,475.600 245.478 M72.005 278.194 C 68.116 279.633,67.720 282.343,68.485 302.289 C 69.287 323.186,69.813 326.140,73.405 329.925 C 75.286 331.907,76.101 334.337,76.945 340.474 C 77.859 347.113,78.532 348.955,80.966 351.474 C 82.732 353.303,84.314 356.405,84.963 359.313 C 87.657 371.387,91.499 372.508,119.928 369.508 C 127.706 368.687,135.292 367.398,136.785 366.643 C 138.278 365.888,141.869 364.497,144.763 363.551 C 147.658 362.605,150.696 361.161,151.513 360.344 C 153.705 358.153,153.332 353.726,150.368 346.720 C 147.443 339.805,146.577 333.928,145.032 310.500 C 143.920 293.634,141.418 282.593,138.009 279.508 C 136.465 278.111,132.117 277.873,105.055 277.699 C 87.908 277.590,73.035 277.812,72.005 278.194 M197.500 277.980 C 172.750 278.266,151.991 278.831,151.369 279.235 C 149.423 280.501,149.245 284.448,150.237 304.260 C 151.075 320.989,151.514 324.248,153.604 329.229 C 155.046 332.667,156.623 339.668,157.545 346.729 C 159.258 359.856,160.354 361.852,166.009 362.144 C 174.114 362.562,240.809 359.838,244.140 358.953 C 246.262 358.389,248.555 356.842,249.640 355.243 C 251.363 352.702,251.500 350.000,251.500 318.500 C 251.500 299.800,251.165 283.307,250.756 281.850 C 250.093 279.489,245.089 276.469,243.101 277.230 C 242.770 277.356,222.250 277.694,197.500 277.980 M264.280 277.982 C 263.059 278.494,261.709 280.170,261.280 281.707 C 260.851 283.243,260.500 299.800,260.500 318.500 C 260.500 350.000,260.637 352.702,262.360 355.243 C 263.446 356.843,265.737 358.388,267.860 358.951 C 271.203 359.838,338.034 362.581,345.937 362.157 C 352.421 361.808,352.607 361.331,355.573 337.379 C 355.854 335.113,357.002 331.513,358.125 329.379 C 360.384 325.084,361.787 311.929,362.101 292.089 C 362.260 282.057,362.060 280.517,360.450 279.339 C 358.986 278.269,349.941 278.000,315.434 278.000 C 291.683 278.000,270.956 277.786,269.375 277.526 C 267.794 277.265,265.501 277.470,264.280 277.982 M377.434 277.853 C 371.394 278.957,368.485 287.816,367.041 309.500 C 365.473 333.043,364.504 340.091,362.219 344.570 C 359.744 349.423,358.566 355.134,359.375 358.359 C 359.849 360.247,361.855 361.484,369.200 364.418 C 376.823 367.464,380.785 368.355,391.965 369.542 C 409.774 371.432,416.351 371.387,420.300 369.346 C 424.502 367.175,425.544 365.616,426.928 359.430 C 427.610 356.382,429.077 353.337,430.512 351.988 C 433.341 349.331,434.586 345.759,435.503 337.672 C 436.003 333.258,436.753 331.332,438.595 329.731 C 442.090 326.691,442.774 322.790,443.545 301.500 C 444.186 283.773,444.105 282.344,442.341 280.169 L 440.450 277.838 409.909 277.669 C 393.111 277.576,378.497 277.659,377.434 277.853 M26.775 334.559 C 23.098 336.555,22.000 338.931,22.000 344.899 C 22.000 349.018,22.523 350.526,24.883 353.215 C 27.061 355.697,28.027 358.175,28.832 363.348 C 29.418 367.114,30.708 371.333,31.699 372.723 C 35.846 378.543,36.990 380.591,36.995 382.203 C 36.998 383.140,38.149 384.715,39.553 385.703 C 40.958 386.691,43.925 388.962,46.148 390.750 C 48.371 392.538,51.029 394.000,52.056 394.000 C 53.083 394.000,55.853 392.196,58.211 389.991 C 60.570 387.786,63.564 385.050,64.864 383.911 C 66.966 382.070,67.181 381.182,66.800 375.909 C 66.437 370.892,65.876 369.467,63.162 366.667 C 60.708 364.136,59.729 361.980,59.001 357.509 C 58.344 353.471,57.252 350.828,55.471 348.970 C 54.053 347.489,52.253 343.856,51.472 340.895 C 50.691 337.934,49.279 334.946,48.335 334.256 C 45.862 332.447,30.262 332.666,26.775 334.559 M463.817 334.042 C 462.892 334.582,461.440 337.414,460.591 340.336 C 459.741 343.258,458.132 346.475,457.015 347.487 C 454.979 349.329,453.587 353.257,452.501 360.221 C 452.181 362.268,451.053 364.550,449.994 365.292 C 444.785 368.940,443.106 380.413,447.250 384.041 C 448.488 385.125,451.244 387.571,453.375 389.478 C 458.614 394.165,460.662 394.676,463.870 392.096 C 465.317 390.933,468.146 388.881,470.157 387.537 C 472.523 385.956,474.256 383.751,475.065 381.296 C 475.753 379.208,477.752 375.410,479.508 372.856 C 481.770 369.565,482.897 366.536,483.376 362.458 C 483.889 358.097,484.772 355.885,487.026 353.317 C 492.066 347.577,490.546 339.354,483.656 335.097 C 480.997 333.453,478.669 333.007,472.882 333.030 C 468.822 333.047,464.743 333.502,463.817 334.042 M189.000 367.050 C 181.025 367.457,173.241 368.284,171.702 368.888 C 165.809 371.203,164.872 380.208,169.865 386.555 C 170.984 387.978,172.636 391.697,173.536 394.821 C 174.436 397.944,175.996 401.400,177.003 402.500 C 178.009 403.600,179.931 406.975,181.272 410.000 C 182.614 413.025,184.724 416.400,185.962 417.500 C 187.200 418.600,189.059 421.158,190.093 423.184 C 191.127 425.210,192.767 427.460,193.737 428.184 C 194.706 428.908,197.155 431.975,199.178 435.000 C 204.416 442.832,210.425 448.866,214.761 450.647 C 216.818 451.491,219.946 453.563,221.713 455.251 C 224.262 457.686,226.226 458.497,231.213 459.171 C 234.733 459.647,238.693 460.897,240.210 462.011 C 244.236 464.967,246.514 464.519,249.168 460.250 C 251.478 456.535,251.503 456.172,251.826 420.983 C 252.160 384.510,251.276 368.424,248.852 366.887 C 247.268 365.884,209.907 365.985,189.000 367.050 M263.148 366.887 C 260.724 368.424,259.840 384.510,260.174 420.983 C 260.497 456.172,260.522 456.535,262.832 460.250 C 265.508 464.554,267.814 464.981,272.060 461.957 C 273.638 460.833,277.308 459.646,280.215 459.319 C 286.359 458.627,288.778 457.552,291.247 454.414 C 292.228 453.166,294.510 451.657,296.316 451.061 C 300.033 449.834,310.421 439.531,314.021 433.500 C 315.334 431.300,317.265 428.878,318.313 428.117 C 319.360 427.357,320.989 425.009,321.934 422.898 C 322.879 420.788,324.813 418.149,326.231 417.033 C 327.650 415.917,329.510 412.953,330.364 410.446 C 331.218 407.939,333.050 404.541,334.434 402.896 C 335.818 401.251,337.640 397.583,338.483 394.745 C 339.326 391.907,341.137 387.967,342.507 385.990 C 346.937 379.598,345.775 371.018,340.189 368.870 C 334.521 366.691,266.231 364.934,263.148 366.887 M125.166 374.594 C 112.960 375.926,108.791 377.352,104.473 381.669 C 101.856 384.287,102.676 389.212,106.450 393.542 C 116.950 405.587,119.362 408.126,126.365 414.500 C 128.782 416.700,132.276 419.913,134.130 421.639 C 135.983 423.366,139.502 425.783,141.949 427.011 C 144.395 428.239,147.692 430.538,149.275 432.122 C 150.859 433.705,152.793 435.000,153.575 435.000 C 154.356 435.000,156.648 436.559,158.668 438.465 C 161.276 440.924,163.911 442.255,167.754 443.053 C 171.249 443.778,173.911 445.032,175.267 446.592 C 178.755 450.604,189.598 452.477,193.370 449.719 C 194.333 449.015,195.160 447.094,195.206 445.451 C 195.294 442.365,192.841 436.638,190.924 435.453 C 190.325 435.083,188.212 432.242,186.229 429.140 C 184.246 426.038,181.618 422.707,180.389 421.738 C 179.159 420.769,177.871 418.688,177.525 417.113 C 177.179 415.539,175.809 413.230,174.481 411.982 C 173.152 410.734,171.319 407.415,170.407 404.606 C 169.496 401.798,167.962 398.600,167.000 397.500 C 164.323 394.440,163.329 392.035,162.043 385.500 C 160.271 376.494,160.088 376.097,156.979 374.489 C 153.446 372.662,142.536 372.698,125.166 374.594 M354.785 374.554 C 352.968 375.540,351.778 377.263,351.186 379.764 C 350.701 381.819,349.775 385.680,349.130 388.345 C 348.485 391.010,346.897 394.610,345.602 396.345 C 344.307 398.080,342.686 401.300,342.000 403.500 C 341.314 405.700,339.571 409.071,338.126 410.992 C 336.682 412.913,334.731 416.182,333.792 418.257 C 332.853 420.333,331.374 422.303,330.505 422.636 C 329.637 422.970,328.212 424.650,327.338 426.371 C 326.465 428.092,324.216 431.395,322.341 433.710 C 317.678 439.468,315.770 444.265,316.930 447.316 C 318.037 450.229,319.817 451.000,325.433 451.000 C 331.134 451.000,335.537 449.356,337.384 446.537 C 338.392 444.998,340.673 443.804,344.200 442.971 C 347.581 442.171,350.859 440.501,353.253 438.359 C 355.317 436.511,357.678 435.000,358.500 435.000 C 359.322 435.000,361.683 433.486,363.747 431.636 C 365.811 429.786,369.075 427.492,371.000 426.538 C 372.925 425.583,375.850 423.513,377.500 421.938 C 379.150 420.362,382.644 417.144,385.265 414.786 C 391.179 409.466,393.962 406.671,398.748 401.249 C 400.812 398.911,403.962 395.504,405.750 393.678 C 409.791 389.550,410.204 384.441,406.750 381.307 C 401.735 376.755,399.385 376.018,385.082 374.509 C 367.205 372.622,358.320 372.635,354.785 374.554 M79.441 409.468 C 78.374 410.276,76.778 410.951,75.896 410.968 C 75.014 410.986,73.101 412.104,71.646 413.452 C 69.236 415.686,69.000 416.576,69.000 423.440 C 69.000 431.878,68.511 431.115,83.500 446.073 C 97.297 459.842,95.907 458.883,103.110 459.594 C 110.496 460.324,116.124 459.008,119.750 455.703 C 121.588 454.027,122.000 452.591,122.000 447.864 C 122.000 441.268,121.750 440.927,104.923 424.530 C 102.118 421.797,98.932 418.309,97.843 416.780 C 96.755 415.251,95.300 414.000,94.610 414.000 C 93.920 414.000,91.589 412.663,89.428 411.028 C 85.047 407.713,82.324 407.288,79.441 409.468 M422.572 411.028 C 420.411 412.663,418.080 414.000,417.390 414.000 C 416.700 414.000,415.096 415.462,413.825 417.250 C 412.554 419.038,409.261 422.635,406.507 425.243 C 399.827 431.572,399.621 431.777,394.471 437.256 C 390.283 441.711,390.000 442.363,390.000 447.572 C 390.000 450.630,390.446 453.964,390.990 454.982 C 392.670 458.121,401.296 460.345,408.883 459.595 C 414.679 459.023,415.934 458.509,419.000 455.456 C 420.925 453.539,425.545 448.939,429.267 445.235 C 443.786 430.785,443.000 431.991,443.000 424.155 C 443.000 420.310,442.721 416.438,442.381 415.551 C 441.697 413.768,430.753 407.984,428.147 408.028 C 427.241 408.043,424.732 409.393,422.572 411.028 M146.365 463.919 C 141.819 466.691,139.534 473.265,140.362 481.188 C 140.993 487.226,142.993 491.000,145.560 491.000 C 146.248 491.000,148.677 492.559,150.957 494.464 C 153.250 496.380,156.758 498.211,158.802 498.559 C 166.048 499.794,169.786 501.038,171.134 502.662 C 173.336 505.317,178.526 507.000,184.513 507.000 C 189.102 507.000,190.526 506.565,192.545 504.545 C 193.895 503.195,195.000 501.411,195.000 500.579 C 195.000 499.748,195.742 497.511,196.650 495.608 C 198.226 492.304,198.196 491.866,195.994 485.824 C 194.727 482.346,193.401 479.164,193.048 478.754 C 192.696 478.343,189.728 477.520,186.454 476.924 C 182.216 476.154,179.635 475.014,177.500 472.971 C 175.537 471.092,172.945 469.862,170.000 469.413 C 164.827 468.623,162.626 467.640,158.673 464.351 C 155.222 461.480,150.629 461.319,146.365 463.919 M353.973 463.692 C 352.613 464.623,351.275 465.680,351.000 466.042 C 349.973 467.394,346.361 468.747,342.000 469.413 C 339.055 469.862,336.463 471.092,334.500 472.971 C 332.365 475.014,329.784 476.154,325.546 476.924 C 322.272 477.520,319.324 478.343,318.996 478.754 C 318.668 479.164,317.350 482.127,316.068 485.339 L 313.735 491.177 315.618 496.839 C 318.345 505.041,320.633 507.000,327.487 507.000 C 333.474 507.000,338.664 505.317,340.866 502.662 C 342.214 501.038,345.952 499.794,353.198 498.559 C 355.242 498.211,358.750 496.380,361.043 494.464 C 363.323 492.559,365.752 491.000,366.440 491.000 C 369.110 491.000,371.057 487.193,371.654 480.803 C 372.734 469.235,368.546 462.000,360.770 462.000 C 358.348 462.000,355.357 462.745,353.973 463.692 M228.411 492.626 C 222.055 498.982,221.810 499.408,222.395 503.067 C 222.730 505.166,223.443 508.034,223.978 509.441 L 224.950 512.000 255.526 512.000 L 286.102 512.000 287.551 508.532 C 288.348 506.625,289.000 503.450,289.000 501.477 C 289.000 498.409,288.122 497.027,282.944 491.945 L 276.887 486.000 255.962 486.000 L 235.037 486.000 228.411 492.626 " stroke="none" fill="#64A4FD" fill-rule="evenodd"/></svg>
