<svg id="svg" version="1.1" width="512" height="512" xmlns="http://www.w3.org/2000/svg"><path d="M242.000 8.752 C 238.766 10.821,235.276 11.941,229.594 12.737 C 224.285 13.479,220.835 14.536,219.094 15.953 C 217.667 17.114,214.052 19.207,211.059 20.604 C 208.066 22.001,204.333 24.225,202.763 25.546 C 201.194 26.867,198.126 28.427,195.948 29.014 C 193.769 29.601,190.680 31.358,189.083 32.919 C 187.351 34.612,184.124 36.251,181.086 36.979 C 177.533 37.832,175.406 39.026,174.050 40.929 C 172.629 42.925,170.626 43.989,166.589 44.893 C 162.712 45.760,160.365 46.966,158.700 48.945 C 157.203 50.724,154.316 52.348,150.868 53.350 C 147.865 54.223,144.350 56.063,143.057 57.440 C 141.764 58.816,139.085 60.469,137.103 61.112 C 135.121 61.756,131.925 63.506,130.000 65.000 C 128.075 66.494,124.843 68.256,122.818 68.914 C 120.793 69.572,117.452 71.449,115.394 73.085 C 113.335 74.721,109.675 76.557,107.260 77.165 C 104.587 77.838,102.264 79.194,101.323 80.630 C 100.381 82.068,97.787 83.580,94.677 84.503 C 91.872 85.336,88.209 87.315,86.538 88.900 C 84.832 90.519,81.032 92.485,77.869 93.385 C 74.193 94.431,71.694 95.818,70.670 97.381 C 69.612 98.996,67.392 100.186,63.859 101.034 C 60.928 101.737,57.527 103.382,56.143 104.766 C 54.782 106.127,52.056 107.913,50.084 108.735 C 48.113 109.557,44.839 111.727,42.810 113.558 C 40.780 115.389,37.756 117.592,36.090 118.453 C 34.424 119.315,31.295 122.621,29.136 125.800 C 26.977 128.979,24.511 132.161,23.656 132.870 C 22.802 133.580,21.560 135.803,20.898 137.811 C 20.235 139.818,18.469 142.685,16.972 144.182 C 15.476 145.678,13.898 148.162,13.464 149.701 C 12.353 153.650,11.721 426.926,12.788 441.809 C 13.633 453.601,13.782 454.181,16.749 457.280 C 18.444 459.051,20.366 462.525,21.020 465.000 C 22.089 469.045,26.165 474.789,32.017 480.500 C 33.144 481.600,35.739 484.136,37.783 486.136 C 39.827 488.135,43.300 490.326,45.500 491.004 C 47.700 491.682,50.960 493.620,52.744 495.309 C 55.482 497.902,57.091 498.499,63.054 499.136 C 68.380 499.705,71.220 500.620,74.589 502.851 C 78.550 505.475,80.220 505.886,89.279 506.471 C 94.901 506.834,174.200 506.989,265.500 506.815 C 410.830 506.539,431.827 506.313,434.124 505.000 C 435.567 504.175,438.170 502.693,439.907 501.707 C 441.644 500.721,445.931 499.570,449.434 499.148 C 454.485 498.540,456.528 497.744,459.315 495.297 C 461.247 493.600,464.555 491.663,466.664 490.991 C 468.774 490.320,472.173 488.135,474.217 486.136 C 477.949 482.485,479.345 481.088,486.222 474.127 C 488.928 471.388,490.250 468.935,491.063 465.143 C 491.822 461.601,492.922 459.442,494.490 458.415 C 499.711 454.994,499.500 461.593,499.500 301.500 C 499.500 142.145,499.618 145.945,494.578 142.643 C 493.256 141.777,491.869 139.682,491.498 137.989 C 491.126 136.295,488.611 132.156,485.911 128.791 C 483.210 125.426,481.000 122.371,481.000 122.004 C 481.000 120.689,465.542 109.672,462.303 108.678 C 460.486 108.121,459.000 107.375,459.000 107.021 C 459.000 104.955,454.375 102.012,449.554 101.011 C 445.360 100.140,443.553 99.181,442.000 97.000 C 440.453 94.828,438.640 93.859,434.515 93.003 C 430.628 92.196,428.393 91.067,426.700 89.055 C 425.192 87.263,422.310 85.651,418.784 84.626 C 415.296 83.612,412.675 82.154,411.720 80.695 C 410.880 79.414,408.255 77.794,405.852 77.074 C 403.460 76.357,400.046 74.491,398.265 72.927 C 396.484 71.364,393.108 69.577,390.763 68.957 C 388.418 68.338,385.150 66.557,383.500 65.000 C 381.850 63.443,378.475 61.642,376.000 60.997 C 373.416 60.324,370.362 58.595,368.829 56.937 C 367.054 55.018,364.732 53.821,361.910 53.370 C 359.171 52.932,356.374 51.526,354.032 49.410 C 351.870 47.457,348.399 45.637,345.451 44.912 C 342.401 44.162,339.540 42.634,338.000 40.934 C 336.625 39.415,333.202 37.445,330.394 36.554 C 327.585 35.663,324.239 33.819,322.959 32.456 C 321.678 31.093,318.801 29.498,316.565 28.911 C 314.329 28.325,310.784 26.486,308.687 24.825 C 306.589 23.163,303.214 21.346,301.187 20.786 C 299.159 20.226,296.047 18.492,294.271 16.933 C 291.112 14.159,289.686 13.729,279.500 12.470 C 276.543 12.105,272.902 10.759,270.589 9.176 C 267.093 6.784,265.609 6.467,256.589 6.187 C 246.926 5.887,246.310 5.995,242.000 8.752 M181.454 340.416 C 185.989 342.311,187.954 345.603,189.010 353.069 C 189.692 357.895,190.556 359.987,192.860 362.395 C 194.494 364.103,196.326 367.375,196.932 369.667 C 197.734 372.704,199.782 375.551,204.483 380.167 C 215.595 391.077,218.259 393.044,224.157 394.694 C 227.268 395.564,231.053 397.341,232.568 398.643 C 236.933 402.394,242.000 403.198,258.969 402.835 C 272.657 402.542,274.945 402.252,277.423 400.500 C 283.842 395.960,285.336 395.202,289.023 394.612 C 292.631 394.035,299.244 389.510,304.500 384.022 C 305.600 382.873,308.122 380.261,310.105 378.217 C 312.088 376.173,314.485 372.475,315.432 370.000 C 316.379 367.525,318.270 364.324,319.634 362.886 C 321.411 361.012,322.365 358.492,323.002 353.984 C 323.756 348.649,324.467 347.106,327.692 343.803 C 331.143 340.269,331.908 339.938,335.997 340.205 L 340.500 340.500 340.500 353.000 C 340.500 365.498,340.499 365.501,337.359 369.500 C 335.632 371.700,333.683 375.191,333.029 377.258 C 332.375 379.324,330.981 381.475,329.930 382.037 C 328.880 382.599,327.274 384.508,326.362 386.280 C 323.831 391.191,311.419 403.507,306.984 405.507 C 304.817 406.484,302.795 408.071,302.489 409.034 C 301.875 410.970,298.463 412.524,292.748 413.470 C 290.628 413.821,287.978 415.189,286.656 416.615 C 283.224 420.316,278.729 420.952,256.000 420.952 C 233.940 420.952,228.425 420.241,225.851 417.063 C 223.947 414.713,219.960 413.000,216.395 413.000 C 214.829 413.000,212.483 411.533,210.000 409.000 C 207.844 406.800,205.395 405.000,204.558 405.000 C 202.388 405.000,189.323 392.404,186.477 387.568 C 185.160 385.331,183.207 382.960,182.136 382.300 C 181.065 381.641,179.625 379.391,178.937 377.300 C 178.248 375.210,176.293 371.767,174.592 369.648 C 171.567 365.880,171.492 365.526,171.147 353.404 C 170.799 341.177,170.826 340.999,173.147 340.069 C 176.435 338.752,177.586 338.800,181.454 340.416 " stroke="none" fill="#64A4FD" fill-rule="evenodd"/></svg>
