<svg id="svg" version="1.1" width="512" height="512" xmlns="http://www.w3.org/2000/svg"><path d="M123.500 99.494 C 102.325 120.665,85.000 138.467,85.000 139.052 C 85.000 139.638,83.589 141.874,81.864 144.020 C 78.130 148.666,77.637 154.409,80.614 158.574 C 81.651 160.026,83.402 162.686,84.504 164.486 C 86.147 167.169,92.576 174.114,103.000 184.465 C 103.825 185.284,105.748 187.202,107.273 188.727 C 108.798 190.252,110.720 192.175,111.545 193.000 C 112.370 193.825,114.048 195.502,115.273 196.727 C 116.498 197.952,118.236 199.691,119.136 200.591 C 120.036 201.491,121.898 203.352,123.273 204.727 C 124.648 206.102,126.448 207.902,127.273 208.727 C 129.662 211.116,130.017 211.472,135.273 216.727 C 136.098 217.552,137.898 219.352,139.273 220.727 C 140.648 222.102,142.448 223.902,143.273 224.727 C 144.098 225.552,145.898 227.352,147.273 228.727 C 148.648 230.102,150.507 231.964,151.405 232.864 C 152.303 233.764,155.014 236.412,157.430 238.750 L 161.822 243.000 172.986 243.000 C 183.824 243.000,184.215 242.923,186.326 240.371 C 187.522 238.925,189.502 236.665,190.727 235.349 C 194.055 231.772,195.003 229.535,194.976 225.316 C 194.939 219.443,193.436 214.236,190.591 210.131 C 188.618 207.284,188.000 205.157,188.000 201.215 C 188.000 196.678,188.278 195.969,190.250 195.481 C 191.488 195.174,218.892 195.053,251.148 195.212 L 309.796 195.500 313.662 198.608 C 315.789 200.317,318.647 202.052,320.014 202.464 C 321.382 202.875,324.161 204.851,326.190 206.856 C 328.220 208.860,330.572 211.175,331.418 212.000 C 333.234 213.773,337.878 218.412,340.000 220.573 C 340.825 221.414,342.850 223.427,344.500 225.048 C 346.150 226.668,347.950 228.469,348.500 229.050 C 349.050 229.631,352.650 233.238,356.500 237.065 C 360.350 240.892,363.807 244.356,364.183 244.762 C 366.099 246.834,369.993 250.464,374.261 254.157 C 378.819 258.099,379.418 258.315,388.261 259.184 C 398.186 260.160,416.864 259.382,420.969 257.822 C 422.350 257.297,424.932 255.435,426.707 253.684 C 428.482 251.933,430.874 249.600,432.022 248.500 C 433.171 247.400,435.857 244.368,437.992 241.762 C 442.737 235.970,443.327 232.719,442.852 214.965 L 442.500 201.780 439.358 199.140 C 437.630 197.688,435.550 194.925,434.736 193.000 C 433.811 190.812,422.459 178.817,404.452 161.000 C 388.610 145.325,374.264 131.094,372.574 129.377 C 370.883 127.659,368.065 125.524,366.311 124.632 C 364.557 123.741,362.512 122.142,361.768 121.079 C 360.186 118.820,356.997 117.371,351.729 116.514 C 349.570 116.164,346.398 114.532,344.312 112.701 L 340.668 109.500 265.649 109.219 C 213.289 109.023,190.234 108.609,189.316 107.847 C 186.860 105.809,187.740 98.735,191.075 93.701 C 193.572 89.931,194.254 87.682,194.703 81.738 L 195.257 74.419 191.379 69.840 C 189.245 67.322,186.717 64.303,185.760 63.131 C 184.175 61.191,183.034 61.000,173.010 61.000 L 162.000 61.000 123.500 99.494 M97.188 252.965 C 90.390 253.590,89.601 253.914,85.971 257.569 C 83.823 259.731,81.139 262.400,80.005 263.500 C 75.167 268.193,70.838 274.080,69.952 277.168 C 69.428 278.993,69.000 286.242,69.000 293.276 C 69.000 306.959,70.170 311.950,73.835 313.912 C 74.938 314.502,76.343 316.509,76.958 318.373 C 77.653 320.480,81.699 325.306,87.652 331.131 C 92.919 336.284,98.189 341.554,99.364 342.842 C 101.559 345.250,133.934 377.249,139.334 382.348 C 140.992 383.914,144.071 386.282,146.175 387.610 C 148.279 388.938,150.000 390.477,150.000 391.029 C 150.000 392.339,155.495 394.728,160.271 395.494 C 162.440 395.842,165.592 397.459,167.688 399.299 L 171.332 402.500 246.351 402.781 C 298.711 402.977,321.766 403.391,322.684 404.153 C 325.140 406.191,324.260 413.265,320.925 418.299 C 318.428 422.069,317.746 424.318,317.297 430.262 L 316.743 437.581 320.827 442.300 C 323.074 444.896,325.349 447.802,325.884 448.760 C 326.701 450.222,328.685 450.553,338.318 450.833 L 349.779 451.167 370.640 430.565 C 382.113 419.234,391.825 409.634,392.222 409.232 C 419.817 381.282,427.000 373.774,427.000 372.879 C 427.000 372.279,428.411 370.006,430.136 367.828 C 433.855 363.132,434.339 357.557,431.386 353.426 C 430.349 351.974,428.560 349.245,427.410 347.361 C 426.261 345.477,423.786 342.402,421.910 340.527 C 420.035 338.653,417.764 336.366,416.864 335.446 C 415.964 334.526,414.102 332.648,412.727 331.273 C 411.352 329.898,409.552 328.098,408.727 327.273 C 407.902 326.448,406.102 324.648,404.727 323.273 C 403.352 321.898,401.552 320.098,400.727 319.273 C 399.902 318.448,398.102 316.648,396.727 315.273 C 395.352 313.898,393.552 312.098,392.727 311.273 C 391.902 310.448,390.102 308.648,388.727 307.273 C 387.352 305.898,385.552 304.098,384.727 303.273 C 383.902 302.448,382.102 300.648,380.727 299.273 C 379.352 297.898,377.552 296.098,376.727 295.273 C 375.902 294.448,374.102 292.648,372.727 291.273 C 371.352 289.898,369.552 288.098,368.727 287.273 C 367.902 286.448,366.102 284.648,364.727 283.273 C 363.352 281.898,361.493 280.036,360.595 279.136 C 359.697 278.236,356.986 275.587,354.570 273.250 L 350.178 269.000 338.974 269.000 L 327.770 269.000 324.268 272.750 C 322.342 274.813,319.920 277.850,318.887 279.500 C 315.626 284.706,316.813 295.237,321.409 301.869 C 323.382 304.716,324.000 306.843,324.000 310.785 C 324.000 315.322,323.722 316.031,321.750 316.519 C 320.512 316.826,293.108 316.947,260.852 316.788 L 202.204 316.500 198.338 313.392 C 196.211 311.683,193.353 309.948,191.986 309.536 C 190.618 309.125,187.839 307.149,185.810 305.144 C 183.780 303.140,181.359 300.771,180.430 299.880 C 178.966 298.476,168.937 288.480,164.120 283.626 C 163.229 282.728,159.350 278.839,155.500 274.985 C 151.650 271.130,148.193 267.644,147.817 267.238 C 145.901 265.165,142.006 261.534,137.725 257.830 C 133.245 253.955,132.441 253.650,124.725 252.912 C 115.219 252.003,107.494 252.018,97.188 252.965 " stroke="none" fill="#64A4FD" fill-rule="evenodd"/></svg>
