<svg id="svg" version="1.1" width="512" height="512" xmlns="http://www.w3.org/2000/svg"><path d="M44.728 1.931 C 44.410 3.150,42.778 4.252,40.308 4.917 C 38.155 5.497,34.546 7.553,32.288 9.486 C 30.030 11.418,27.699 13.000,27.110 13.000 C 25.711 13.000,13.000 25.711,13.000 27.110 C 13.000 27.699,11.418 30.030,9.486 32.288 C 7.553 34.546,5.497 38.155,4.917 40.308 C 4.252 42.778,3.150 44.410,1.931 44.728 C 0.031 45.225,0.000 48.569,0.000 256.000 C -0.000 463.431,0.031 466.775,1.931 467.272 C 3.150 467.590,4.252 469.222,4.917 471.692 C 5.497 473.845,7.553 477.454,9.486 479.712 C 11.418 481.970,13.000 484.301,13.000 484.890 C 13.000 486.289,25.711 499.000,27.110 499.000 C 27.699 499.000,30.030 500.582,32.288 502.514 C 34.546 504.447,38.155 506.503,40.308 507.083 C 42.778 507.748,44.410 508.850,44.728 510.069 C 45.223 511.959,47.149 512.000,136.008 512.000 L 226.783 512.000 227.449 509.349 C 227.814 507.891,229.198 505.846,230.522 504.804 C 233.261 502.649,234.986 497.446,234.994 491.315 C 235.002 485.775,233.636 482.447,229.458 477.822 C 227.556 475.717,226.000 473.556,226.000 473.020 C 226.000 472.484,224.783 471.248,223.295 470.273 C 220.790 468.631,215.420 468.463,150.545 468.000 L 80.500 467.500 76.748 464.844 C 74.515 463.263,70.892 461.898,67.797 461.472 C 63.215 460.842,61.922 460.082,56.920 455.080 C 51.918 450.078,51.158 448.785,50.528 444.203 C 50.102 441.108,48.737 437.485,47.156 435.252 L 44.500 431.500 44.500 256.000 L 44.500 80.500 47.156 76.748 C 48.737 74.515,50.102 70.892,50.528 67.797 C 51.158 63.215,51.918 61.922,56.920 56.920 C 61.922 51.918,63.215 51.158,67.797 50.528 C 70.892 50.102,74.515 48.737,76.748 47.156 L 80.500 44.500 202.659 44.238 L 324.819 43.977 327.810 46.494 C 329.647 48.039,333.595 49.641,338.041 50.645 C 342.023 51.545,345.893 53.005,346.642 53.890 C 347.391 54.776,349.559 57.334,351.460 59.575 C 353.361 61.816,355.482 64.966,356.174 66.575 C 357.135 68.811,357.557 89.083,357.966 152.670 L 358.500 235.841 360.746 238.231 C 361.981 239.545,363.684 242.652,364.531 245.136 C 365.444 247.817,367.887 251.436,370.544 254.044 C 374.836 258.255,375.307 258.452,382.013 258.831 C 394.544 259.539,397.282 258.665,403.923 251.836 C 407.438 248.221,410.032 244.590,410.395 242.777 C 411.346 238.019,411.054 64.938,410.087 60.777 C 409.612 58.729,408.115 55.737,406.761 54.128 C 405.312 52.406,403.821 48.767,403.135 45.278 C 402.217 40.612,401.343 38.890,399.022 37.175 C 397.216 35.839,395.659 33.447,394.998 30.991 C 394.404 28.788,392.467 25.526,390.693 23.743 C 388.919 21.959,386.487 19.116,385.290 17.425 C 383.940 15.518,381.569 13.888,379.047 13.132 C 376.811 12.462,373.619 10.583,371.954 8.955 C 370.290 7.328,367.369 5.345,365.464 4.549 C 363.559 3.753,362.000 2.404,362.000 1.551 C 362.000 0.156,346.051 0.000,203.617 0.000 C 47.949 0.000,45.225 0.033,44.728 1.931 M183.000 69.724 C 182.175 70.036,179.925 71.514,178.000 73.008 C 176.075 74.503,172.925 76.524,171.000 77.498 C 169.075 78.473,167.091 79.972,166.592 80.830 C 166.092 81.687,163.955 84.264,161.842 86.556 C 159.729 88.848,157.989 91.123,157.975 91.612 C 157.961 92.100,155.711 95.192,152.975 98.482 C 150.239 101.772,148.000 104.922,148.000 105.482 C 148.000 106.042,146.425 107.757,144.500 109.293 C 142.575 110.829,141.000 112.718,141.000 113.492 C 141.000 114.265,139.443 116.086,137.539 117.538 C 135.636 118.990,133.805 121.038,133.472 122.089 C 132.448 125.313,130.364 124.269,124.312 117.497 C 120.774 113.539,117.131 110.518,115.000 109.775 C 113.051 109.096,106.405 108.546,100.000 108.534 C 90.487 108.516,87.809 108.857,84.500 110.506 C 78.031 113.731,76.867 117.175,77.210 132.087 L 77.500 144.673 80.855 148.587 C 87.581 156.432,103.199 172.000,104.334 171.991 C 104.975 171.986,106.627 173.353,108.004 175.028 C 110.271 177.785,111.458 178.220,120.504 179.612 C 129.082 180.932,131.989 180.967,141.000 179.856 C 150.874 178.638,151.720 178.350,155.198 175.030 C 157.233 173.089,161.366 169.250,164.384 166.500 C 167.403 163.750,170.414 160.241,171.077 158.703 C 171.740 157.164,173.568 155.240,175.141 154.427 C 176.713 153.614,178.000 152.463,178.000 151.869 C 178.000 151.276,179.782 148.925,181.959 146.645 C 188.367 139.936,193.493 133.746,195.758 129.983 C 196.923 128.049,199.028 125.383,200.438 124.059 C 201.847 122.735,203.000 121.072,203.000 120.364 C 203.000 119.656,204.758 117.337,206.907 115.209 C 210.270 111.880,210.914 110.518,211.534 105.421 C 211.930 102.164,212.872 98.285,213.627 96.800 C 215.417 93.280,215.374 89.555,213.526 88.022 C 212.716 87.349,211.769 85.283,211.421 83.431 C 210.739 79.797,202.618 71.946,197.546 70.017 C 194.728 68.946,185.551 68.761,183.000 69.724 M242.114 124.883 C 234.557 125.519,233.520 125.860,231.614 128.334 C 230.451 129.844,228.016 132.828,226.202 134.964 C 224.388 137.101,222.475 140.343,221.952 142.168 C 219.848 149.504,221.448 159.099,225.102 161.055 C 226.142 161.611,227.876 163.796,228.954 165.910 C 231.201 170.315,231.664 170.564,239.380 171.528 C 242.752 171.950,246.505 173.210,248.581 174.620 C 252.034 176.962,252.466 177.000,275.987 177.000 C 297.965 177.000,300.154 176.842,303.224 175.031 C 305.059 173.947,309.642 172.415,313.407 171.626 C 319.673 170.313,320.665 169.741,325.124 164.864 C 330.698 158.769,331.463 156.121,330.770 145.323 C 330.302 138.024,330.168 137.698,326.144 134.019 C 323.865 131.936,322.000 129.741,322.000 129.141 C 322.000 128.542,320.538 127.293,318.750 126.365 C 315.929 124.902,311.207 124.646,283.000 124.427 C 265.125 124.289,246.726 124.494,242.114 124.883 M185.003 193.497 C 184.319 194.320,181.488 195.669,178.710 196.494 C 171.694 198.577,169.430 200.288,165.441 206.525 C 163.535 209.505,161.142 212.389,160.125 212.933 C 159.107 213.478,157.699 215.312,156.996 217.009 C 156.293 218.706,154.432 220.760,152.859 221.573 C 151.287 222.386,150.000 223.530,150.000 224.115 C 150.000 224.700,148.088 227.135,145.750 229.527 C 143.412 231.918,139.475 236.366,137.000 239.410 C 133.546 243.659,131.861 244.951,129.750 244.973 C 127.081 244.999,123.000 242.005,123.000 240.020 C 123.000 239.482,121.249 238.147,119.109 237.056 C 116.969 235.964,114.341 233.867,113.270 232.395 C 111.524 229.999,110.530 229.669,103.741 229.234 C 93.320 228.565,89.956 229.395,85.354 233.769 C 83.195 235.821,80.544 237.998,79.464 238.608 C 77.740 239.580,77.458 241.029,77.155 250.484 C 76.601 267.799,76.781 268.337,86.538 278.601 C 91.191 283.495,95.507 287.950,96.129 288.500 C 96.751 289.050,99.114 291.358,101.380 293.629 C 103.646 295.900,107.300 298.312,109.500 298.988 C 111.700 299.665,115.230 301.574,117.344 303.232 C 120.415 305.640,122.455 306.347,127.493 306.751 C 136.506 307.475,142.774 306.317,145.705 303.385 C 147.055 302.036,150.351 300.098,153.030 299.081 C 159.395 296.662,167.365 288.448,177.703 273.653 C 179.826 270.614,181.502 268.643,190.776 258.279 C 206.528 240.673,209.882 236.417,210.541 233.195 C 210.844 231.713,211.809 227.942,212.684 224.816 C 214.200 219.404,214.172 218.676,212.084 209.643 C 210.879 204.425,209.303 199.666,208.583 199.069 C 207.863 198.472,204.625 197.498,201.387 196.905 C 198.149 196.312,194.097 194.966,192.382 193.913 C 188.629 191.611,186.660 191.499,185.003 193.497 M240.250 246.989 C 238.463 248.079,237.000 249.373,237.000 249.864 C 237.000 250.355,235.662 251.311,234.028 251.989 C 232.393 252.666,228.905 255.736,226.278 258.812 L 221.500 264.404 221.500 271.979 L 221.500 279.554 226.384 285.211 C 229.070 288.323,232.557 291.402,234.134 292.055 C 235.710 292.708,237.000 293.645,237.000 294.136 C 237.000 294.627,238.463 295.921,240.250 297.011 C 243.311 298.878,245.363 298.993,275.601 298.996 C 307.639 299.000,313.213 298.493,314.374 295.468 C 314.668 294.702,317.665 292.683,321.035 290.982 C 329.378 286.771,331.412 282.427,330.812 270.096 C 330.299 259.559,329.019 257.355,320.896 253.025 C 317.579 251.257,314.634 249.210,314.352 248.475 C 313.215 245.513,307.494 245.000,275.601 245.004 C 245.363 245.007,243.311 245.122,240.250 246.989 M435.572 268.985 C 426.116 269.631,425.522 269.807,423.072 272.697 C 421.658 274.366,418.363 276.667,415.750 277.809 C 413.137 278.952,410.999 280.250,410.998 280.694 C 410.997 281.137,408.860 282.847,406.248 284.493 C 403.637 286.140,377.348 311.624,347.830 341.124 C 303.545 385.383,293.977 395.424,293.114 398.548 C 292.540 400.630,290.674 403.773,288.969 405.532 C 286.151 408.440,285.792 409.561,285.010 417.898 C 284.241 426.091,283.823 427.438,281.075 430.568 C 279.384 432.494,277.972 434.391,277.937 434.785 C 276.511 450.992,276.262 452.108,273.068 456.555 C 270.227 460.511,269.737 462.182,268.935 470.662 C 268.240 478.005,267.430 481.297,265.512 484.569 C 262.649 489.455,262.300 493.569,264.540 496.044 C 266.303 497.992,270.000 507.602,270.000 510.236 C 270.000 511.876,271.826 512.000,296.000 512.000 C 317.971 512.000,322.000 511.777,322.000 510.559 C 322.000 508.334,323.194 507.986,334.045 507.043 C 342.334 506.323,344.815 505.710,347.827 503.639 C 353.215 499.932,356.383 499.000,363.597 499.000 C 370.731 499.000,376.306 497.165,377.831 494.316 C 378.377 493.296,380.945 491.895,383.538 491.201 C 387.517 490.137,390.066 488.142,399.876 478.416 C 469.915 408.978,496.665 381.865,499.493 377.443 C 501.331 374.571,503.328 371.915,503.931 371.542 C 504.535 371.169,505.931 369.095,507.035 366.932 C 508.138 364.769,509.707 363.000,510.520 363.000 C 511.795 363.000,512.000 358.713,512.000 332.117 C 512.000 302.387,511.927 301.214,510.059 300.726 C 508.991 300.447,507.449 298.616,506.631 296.659 C 504.729 292.108,491.585 279.128,487.002 277.275 C 485.076 276.497,482.342 274.487,480.927 272.809 C 478.433 269.852,478.006 269.734,466.927 268.937 C 454.061 268.012,449.734 268.019,435.572 268.985 M178.570 317.122 C 174.770 318.013,165.005 326.186,165.001 328.478 C 165.001 329.016,163.313 331.138,161.250 333.194 C 159.188 335.249,155.542 339.151,153.150 341.865 C 150.757 344.579,147.619 348.082,146.177 349.650 C 140.813 355.480,133.810 365.233,132.420 368.808 L 130.985 372.500 131.312 369.303 C 131.491 367.544,131.316 366.304,130.923 366.548 C 129.561 367.389,124.777 364.162,122.962 361.177 C 121.959 359.528,120.094 357.864,118.819 357.479 C 117.544 357.094,115.150 355.507,113.500 353.951 C 109.757 350.422,106.067 348.998,100.685 349.006 C 94.608 349.014,89.356 350.732,87.258 353.399 C 86.250 354.680,83.961 356.486,82.170 357.412 C 77.527 359.813,76.788 362.744,77.167 377.267 L 77.500 390.033 81.319 393.767 C 83.420 395.820,89.848 402.337,95.604 408.250 C 101.360 414.163,106.655 419.000,107.371 419.000 C 108.086 419.000,110.813 420.669,113.431 422.708 C 118.012 426.277,118.542 426.431,127.566 426.826 C 139.535 427.349,145.293 426.464,148.745 423.569 C 150.260 422.299,153.153 420.376,155.174 419.297 C 160.689 416.350,172.055 404.067,178.582 394.000 C 180.187 391.525,182.567 388.637,183.871 387.582 C 185.175 386.527,186.869 384.165,187.635 382.332 C 188.400 380.499,189.685 379.000,190.490 379.000 C 191.295 379.000,192.717 377.762,193.650 376.250 C 194.584 374.738,196.848 371.925,198.683 370.000 C 208.105 360.116,209.869 357.836,210.448 354.801 C 211.680 348.335,213.287 342.940,214.137 342.415 C 215.295 341.700,215.240 337.266,214.064 336.539 C 213.549 336.221,212.387 332.631,211.481 328.561 C 210.566 324.447,209.029 320.432,208.021 319.519 C 204.716 316.528,187.189 315.102,178.570 317.122 M455.989 321.892 C 461.569 323.445,465.177 334.641,461.652 339.462 C 460.163 341.498,458.000 340.792,458.000 338.270 C 458.000 336.406,447.728 326.366,444.903 325.469 C 443.856 325.137,443.000 324.431,443.000 323.900 C 443.000 321.590,450.653 320.407,455.989 321.892 M409.447 362.980 C 410.865 363.519,412.557 365.128,413.207 366.555 C 413.857 367.982,415.671 369.813,417.238 370.623 C 420.555 372.338,422.377 376.346,421.483 379.961 C 421.102 381.505,408.636 394.559,389.678 413.268 C 361.558 441.018,358.016 444.181,353.563 445.520 C 350.847 446.336,347.628 447.940,346.409 449.085 C 343.692 451.638,337.856 453.062,334.212 452.063 C 331.579 451.340,331.505 451.121,331.664 444.513 C 331.790 439.285,332.310 437.105,333.911 435.104 C 335.057 433.672,337.084 430.475,338.416 428.000 C 341.756 421.792,401.853 362.000,404.753 362.000 C 405.917 362.000,408.030 362.441,409.447 362.980 " stroke="none" fill="#64A4FD" fill-rule="evenodd"/></svg>
