<svg id="svg" version="1.1" width="512" height="512" xmlns="http://www.w3.org/2000/svg"><path d="M182.000 1.474 C 182.000 2.285,180.564 3.691,178.809 4.599 C 177.054 5.506,173.001 9.005,169.803 12.374 C 162.255 20.325,160.857 21.760,158.750 23.721 C 157.787 24.617,157.000 26.186,157.000 27.207 C 157.000 29.614,154.646 34.595,151.440 38.975 L 148.896 42.451 149.004 70.475 C 149.064 85.889,149.088 99.063,149.057 99.750 C 148.952 102.052,147.207 101.032,146.172 98.064 C 145.572 96.344,143.773 94.423,141.824 93.425 C 139.996 92.489,137.050 90.460,135.277 88.916 C 133.505 87.372,130.355 85.642,128.277 85.072 C 126.178 84.496,123.389 82.687,122.000 81.000 C 119.995 78.566,118.328 77.775,113.581 77.007 C 109.495 76.346,106.838 75.261,105.005 73.505 C 101.280 69.936,97.086 68.996,85.007 69.024 C 72.258 69.053,67.622 70.030,64.064 73.439 C 62.176 75.248,59.455 76.372,55.119 77.136 C 50.049 78.029,48.481 78.783,46.707 81.182 C 45.508 82.804,43.121 84.798,41.402 85.613 C 39.683 86.429,37.785 88.176,37.184 89.495 C 36.583 90.815,34.905 92.671,33.456 93.621 C 32.007 94.570,29.751 97.632,28.443 100.424 C 27.134 103.216,25.073 106.723,23.861 108.217 C 21.993 110.522,21.524 112.837,20.773 123.467 C 20.266 130.642,20.258 141.237,20.755 148.250 C 21.603 160.209,21.709 160.612,25.224 165.211 C 27.204 167.803,29.117 171.257,29.475 172.888 C 29.835 174.525,31.330 176.623,32.813 177.573 C 34.291 178.518,36.728 180.750,38.229 182.532 C 39.730 184.315,42.093 186.057,43.479 186.405 C 44.866 186.753,46.000 187.480,46.000 188.019 C 46.000 188.559,45.836 189.000,45.636 189.000 C 41.914 189.000,34.018 191.551,32.040 193.393 C 30.643 194.694,27.774 196.311,25.664 196.985 C 23.555 197.660,20.397 199.468,18.648 201.004 C 16.898 202.540,13.585 204.304,11.284 204.924 C 8.590 205.649,6.346 207.110,4.982 209.025 C 3.817 210.661,2.219 212.000,1.432 212.000 C 0.244 212.000,0.000 214.960,0.000 229.345 C 0.000 245.143,0.170 246.844,1.909 248.417 C 2.958 249.367,4.389 251.575,5.089 253.322 C 5.788 255.070,7.590 257.625,9.094 259.000 C 10.597 260.375,12.583 263.880,13.506 266.788 C 14.526 269.999,16.128 272.693,17.584 273.647 C 18.912 274.517,20.440 276.921,21.010 279.037 C 21.576 281.138,23.632 284.765,25.580 287.096 C 27.528 289.428,29.772 292.593,30.567 294.129 C 32.551 297.966,37.648 299.290,48.754 298.856 C 56.422 298.556,58.302 298.140,60.678 296.217 C 62.230 294.962,65.525 292.998,68.000 291.852 C 70.475 290.707,73.850 288.510,75.500 286.970 C 77.150 285.429,80.525 283.638,83.000 282.988 C 85.843 282.242,88.654 280.554,90.635 278.403 C 92.359 276.532,94.744 275.000,95.935 275.000 C 98.599 275.000,103.163 272.714,105.059 270.429 C 105.836 269.493,108.449 267.879,110.865 266.844 C 113.281 265.808,116.571 263.856,118.174 262.507 C 119.778 261.157,122.895 259.512,125.102 258.851 C 127.378 258.169,129.953 256.471,131.053 254.925 C 132.405 253.027,134.535 251.831,138.082 250.980 C 141.645 250.125,144.092 248.747,146.246 246.380 C 147.937 244.521,150.179 243.000,151.226 243.000 C 153.643 243.000,156.573 241.452,160.978 237.847 C 162.891 236.281,165.252 235.000,166.225 235.000 C 167.198 235.000,169.686 233.472,171.753 231.604 C 173.820 229.737,177.397 227.701,179.702 227.080 C 182.007 226.460,184.754 224.856,185.807 223.518 C 187.787 221.001,190.520 219.561,195.231 218.555 C 196.733 218.234,199.530 216.403,201.448 214.486 C 203.365 212.569,205.878 211.000,207.032 211.000 C 209.638 211.000,212.482 209.526,216.978 205.847 C 218.891 204.281,220.986 203.000,221.633 203.000 C 222.281 203.000,224.612 201.495,226.814 199.656 C 229.015 197.816,232.897 195.729,235.439 195.017 C 238.392 194.190,240.771 192.726,242.027 190.962 C 243.384 189.056,245.505 187.838,248.878 187.029 C 251.915 186.301,254.829 184.744,256.584 182.913 C 258.135 181.293,261.081 179.517,263.131 178.965 C 265.180 178.413,268.689 176.431,270.928 174.560 C 273.167 172.690,276.364 170.859,278.033 170.493 C 279.702 170.126,281.749 168.786,282.583 167.514 C 284.094 165.207,287.038 163.700,292.262 162.559 C 293.781 162.227,296.205 160.630,297.650 159.009 C 299.276 157.184,302.300 155.473,305.591 154.517 C 308.515 153.667,311.519 152.098,312.266 151.030 C 313.014 149.963,315.622 148.228,318.063 147.174 C 320.503 146.121,323.340 144.319,324.368 143.171 C 325.395 142.022,328.360 140.377,330.956 139.515 C 333.553 138.652,336.928 136.641,338.457 135.044 C 340.172 133.255,343.111 131.693,346.126 130.970 C 349.340 130.199,351.782 128.847,353.257 127.023 C 354.532 125.446,357.657 123.538,360.500 122.600 C 363.888 121.482,367.488 119.073,371.666 115.127 C 377.016 110.074,377.925 108.680,378.538 104.596 C 379.792 96.234,378.668 90.285,375.150 86.655 C 373.403 84.852,371.339 81.136,370.481 78.249 C 369.636 75.403,368.066 72.459,366.992 71.707 C 365.918 70.955,364.304 68.576,363.404 66.420 C 362.504 64.264,360.533 60.925,359.025 59.000 C 357.517 57.075,355.728 53.792,355.049 51.705 C 354.370 49.617,352.651 46.830,351.229 45.512 C 349.807 44.193,347.693 40.726,346.531 37.807 C 343.390 29.917,340.722 28.843,325.176 29.209 L 312.852 29.500 310.176 32.659 C 308.326 34.843,305.762 36.308,301.869 37.403 C 298.144 38.451,295.701 39.808,294.648 41.414 C 293.611 42.997,291.047 44.443,287.279 45.570 C 277.348 48.540,276.550 48.068,275.453 38.565 C 274.576 30.975,273.642 28.495,270.167 24.537 C 268.648 22.807,266.834 20.014,266.136 18.329 C 265.439 16.645,263.765 14.677,262.417 13.955 C 261.069 13.234,258.891 11.235,257.578 9.513 C 256.189 7.692,253.429 5.802,250.980 4.993 C 248.664 4.229,246.263 2.793,245.644 1.802 C 244.599 0.128,242.290 0.000,213.259 0.000 C 186.382 0.000,182.000 0.207,182.000 1.474 M226.454 41.427 C 236.042 49.068,236.995 50.800,236.948 60.500 C 236.927 64.900,236.368 69.698,235.705 71.163 C 233.970 74.996,225.034 82.628,219.504 84.998 C 216.897 86.116,213.883 88.150,212.806 89.520 C 211.640 91.002,208.970 92.482,206.210 93.177 C 203.378 93.890,200.517 95.500,198.864 97.310 C 194.201 102.416,193.231 100.749,193.231 87.630 C 193.231 77.645,192.949 75.653,191.115 72.687 C 188.477 68.417,188.419 63.465,190.960 59.298 C 192.034 57.536,193.575 53.560,194.384 50.461 C 195.713 45.371,198.023 42.118,200.368 42.032 C 200.845 42.014,202.774 40.650,204.653 39.000 C 207.607 36.406,208.853 36.000,213.856 36.000 C 219.358 36.000,219.979 36.267,226.454 41.427 M427.244 85.650 C 426.003 85.920,424.203 87.265,423.244 88.640 C 422.285 90.014,419.813 93.160,417.750 95.630 C 414.445 99.589,414.000 100.755,414.000 105.466 C 414.000 110.015,414.484 111.402,417.250 114.781 C 419.038 116.965,420.950 119.517,421.500 120.452 C 422.086 121.448,425.182 122.772,428.972 123.648 C 434.300 124.878,436.556 124.933,441.732 123.956 C 447.672 122.835,448.295 122.440,453.010 116.798 C 457.631 111.267,458.000 110.430,458.000 105.473 C 458.000 100.765,457.549 99.575,454.250 95.572 C 452.188 93.069,449.562 89.815,448.415 88.340 C 446.482 85.854,445.717 85.641,437.915 85.409 C 433.287 85.272,428.485 85.380,427.244 85.650 M101.547 118.678 C 102.914 120.425,105.712 122.402,107.766 123.071 C 109.820 123.739,112.874 125.481,114.554 126.941 C 116.234 128.401,119.159 130.223,121.054 130.991 C 125.058 132.612,125.964 133.666,125.985 136.724 C 125.995 138.239,124.964 139.471,122.750 140.586 C 120.963 141.487,118.150 143.485,116.500 145.027 C 114.850 146.569,111.596 148.334,109.270 148.949 C 106.812 149.598,103.780 151.415,102.035 153.283 L 99.032 156.500 86.766 156.823 C 72.743 157.193,69.781 156.423,67.409 151.793 C 66.482 149.982,64.435 147.022,62.861 145.215 C 60.521 142.528,60.000 141.007,60.000 136.859 C 60.000 132.704,60.556 131.086,63.079 127.901 C 64.772 125.763,66.584 122.469,67.105 120.581 C 68.423 115.807,71.198 115.042,86.281 115.290 L 99.062 115.500 101.547 118.678 M459.014 148.495 C 454.765 149.521,452.780 150.686,450.209 153.660 C 446.033 158.491,445.000 161.025,445.000 166.443 C 445.000 171.686,444.011 172.555,437.176 173.324 C 432.040 173.902,430.966 174.509,423.586 181.000 C 420.945 183.323,414.998 193.992,415.018 196.371 C 415.028 197.542,416.378 200.480,418.018 202.900 C 419.658 205.321,421.000 207.597,421.000 207.960 C 421.000 208.322,423.469 210.750,426.486 213.355 C 431.089 217.328,432.819 218.186,437.236 218.683 C 444.008 219.444,445.000 220.323,445.000 225.557 C 445.000 231.288,446.049 233.709,450.646 238.595 C 453.895 242.047,455.481 242.879,460.750 243.895 C 470.688 245.812,483.000 242.760,483.000 238.380 C 483.000 237.659,484.374 235.505,486.054 233.592 C 487.806 231.596,489.357 228.491,489.693 226.307 C 490.583 220.519,491.700 219.000,495.067 219.000 C 499.164 219.000,504.619 216.583,506.186 214.074 C 506.898 212.933,508.498 212.000,509.741 212.000 C 511.992 212.000,512.000 211.946,512.000 196.000 C 512.000 180.233,511.968 180.000,509.823 180.000 C 508.625 180.000,506.488 178.634,505.073 176.964 C 503.003 174.521,501.465 173.808,497.208 173.319 C 491.438 172.657,490.639 171.846,489.693 165.693 C 489.357 163.509,487.806 160.404,486.054 158.408 C 484.374 156.495,483.000 154.341,483.000 153.620 C 483.000 151.279,479.623 149.315,473.583 148.146 C 466.539 146.782,466.061 146.793,459.014 148.495 M366.567 177.500 C 364.642 179.425,362.602 181.000,362.033 181.000 C 361.465 181.000,360.100 181.900,359.000 183.000 C 357.242 184.758,357.000 186.333,357.000 196.000 C 357.000 205.667,357.242 207.242,359.000 209.000 C 360.100 210.100,361.465 211.000,362.033 211.000 C 362.602 211.000,364.642 212.575,366.567 214.500 C 369.792 217.725,370.540 218.000,376.090 218.000 C 381.418 218.000,382.424 217.671,384.806 215.146 C 386.288 213.576,388.930 211.473,390.679 210.472 C 394.556 208.253,394.969 206.848,394.986 195.815 C 395.002 185.867,394.034 182.463,390.910 181.471 C 389.697 181.086,387.181 179.248,385.319 177.386 C 382.232 174.299,381.409 174.000,376.000 174.000 C 370.552 174.000,369.780 174.287,366.567 177.500 M244.704 236.853 C 241.429 237.236,238.528 238.146,238.034 238.945 C 237.553 239.723,236.857 244.441,236.488 249.430 C 235.592 261.525,236.381 366.035,237.385 368.195 C 238.620 370.855,242.721 371.689,249.656 370.692 C 253.478 370.142,258.522 370.142,262.344 370.692 C 270.146 371.814,273.734 370.794,274.752 367.166 C 275.163 365.700,275.500 336.725,275.500 302.778 C 275.500 242.376,275.457 241.014,273.500 239.093 C 271.847 237.470,269.679 237.047,261.000 236.652 C 255.225 236.390,247.892 236.480,244.704 236.853 M307.500 236.658 C 296.219 238.004,296.014 238.072,294.493 241.013 C 293.204 243.506,293.000 255.237,293.000 326.879 C 293.000 418.839,293.441 413.000,286.494 413.000 C 281.135 413.000,278.747 411.605,271.918 404.488 C 264.434 396.688,261.602 395.000,256.000 395.000 C 250.457 395.000,247.626 396.693,240.079 404.520 C 233.242 411.611,230.855 413.000,225.506 413.000 C 218.559 413.000,219.000 418.839,219.000 326.879 C 219.000 233.009,219.472 238.643,211.510 237.449 C 209.033 237.078,203.809 236.955,199.900 237.175 C 193.404 237.543,192.567 237.845,190.147 240.698 C 188.351 242.816,185.732 244.318,182.000 245.372 C 178.696 246.304,175.984 247.759,175.208 249.016 C 174.498 250.166,171.852 251.992,169.329 253.073 C 166.806 254.155,163.429 256.144,161.825 257.494 C 160.221 258.843,157.152 260.420,155.005 260.999 C 152.690 261.622,150.299 263.175,149.132 264.815 C 147.767 266.732,145.574 267.987,141.985 268.907 C 138.685 269.753,135.885 271.269,134.266 273.086 C 132.746 274.792,129.640 276.544,126.538 277.446 C 123.686 278.275,120.485 279.922,119.426 281.106 C 118.367 282.290,115.475 284.130,113.000 285.194 C 110.525 286.258,107.375 288.163,106.000 289.428 C 104.625 290.693,101.936 292.251,100.025 292.890 C 98.113 293.530,95.188 295.345,93.525 296.924 C 91.861 298.502,89.263 300.945,87.750 302.352 L 85.000 304.909 85.000 403.117 C 85.000 492.368,85.153 501.811,86.683 506.662 L 88.365 512.000 256.000 512.000 L 423.635 512.000 425.317 506.662 C 426.857 501.778,427.000 490.638,427.000 375.596 C 427.000 282.480,426.701 249.302,425.845 247.684 C 425.210 246.483,422.909 243.708,420.730 241.517 C 417.004 237.770,416.319 237.493,409.135 236.838 C 401.487 236.141,313.146 235.984,307.500 236.658 " stroke="none" fill="#64A4FD" fill-rule="evenodd"/></svg>
