<svg id="svg" version="1.1" width="512" height="512" xmlns="http://www.w3.org/2000/svg"><path d="M272.628 1.526 C 272.306 2.366,270.060 3.902,267.638 4.941 C 265.215 5.979,262.540 7.819,261.692 9.030 C 260.844 10.240,258.755 12.079,257.050 13.116 C 255.345 14.153,253.543 16.073,253.045 17.383 C 252.546 18.693,250.784 20.730,249.129 21.908 C 247.473 23.087,245.806 25.053,245.424 26.276 C 245.042 27.499,243.465 29.950,241.920 31.723 C 240.374 33.495,238.637 36.645,238.060 38.723 C 236.787 43.309,236.648 76.286,237.884 80.596 C 238.371 82.292,240.396 85.811,242.384 88.416 C 244.373 91.022,246.000 93.638,246.000 94.230 C 246.000 95.179,247.359 96.700,255.329 104.671 C 262.889 112.230,265.079 113.887,269.455 115.355 C 272.180 116.270,275.696 118.252,277.268 119.759 L 280.127 122.500 302.313 122.816 C 328.880 123.194,332.159 122.821,336.203 118.956 C 337.870 117.364,340.193 115.763,341.366 115.400 C 343.358 114.783,346.080 112.630,356.742 103.237 C 359.075 101.182,361.680 97.941,362.531 96.036 C 363.381 94.130,365.562 91.205,367.378 89.536 C 370.622 86.552,370.692 86.303,371.494 75.000 C 372.527 60.439,372.528 58.924,371.516 45.000 C 370.700 33.769,370.605 33.430,367.444 30.500 C 365.664 28.850,363.548 25.905,362.741 23.956 C 360.961 19.656,346.757 6.418,342.355 4.958 C 340.626 4.384,338.981 3.034,338.699 1.957 C 338.204 0.065,337.110 0.000,305.701 0.000 C 277.496 0.000,273.137 0.201,272.628 1.526 M233.887 168.932 C 229.395 171.927,228.852 172.029,213.200 172.839 C 200.746 173.484,196.607 174.048,194.814 175.343 C 193.541 176.262,191.503 177.727,190.284 178.600 C 189.065 179.472,185.085 180.555,181.439 181.008 C 177.155 181.539,174.048 182.523,172.655 183.790 C 169.149 186.978,166.074 188.185,159.312 189.023 C 153.292 189.770,152.596 190.141,147.212 195.479 L 141.500 201.143 141.173 215.130 C 140.781 231.913,141.544 234.000,148.069 234.000 C 151.005 234.000,152.753 233.338,154.543 231.548 C 158.338 227.752,163.021 227.012,183.250 227.006 C 201.415 227.000,202.065 227.070,204.080 229.250 C 205.224 230.488,207.587 232.987,209.330 234.804 L 212.500 238.108 212.435 256.447 C 212.367 275.811,212.630 274.498,207.361 281.786 C 206.187 283.410,205.506 287.328,205.012 295.307 C 204.351 305.973,203.066 311.000,201.000 311.000 C 199.053 311.000,197.734 315.660,196.986 325.183 C 196.480 331.623,195.650 335.824,194.598 337.275 C 193.712 338.499,192.276 340.492,191.408 341.705 C 190.411 343.097,189.505 347.642,188.950 354.033 C 188.153 363.204,187.792 364.473,185.103 367.536 C 182.015 371.053,181.609 372.772,180.519 386.967 C 180.204 391.074,179.286 395.349,178.480 396.467 C 173.156 403.850,173.522 401.296,173.182 433.419 C 173.006 449.940,173.149 464.979,173.498 466.840 C 173.847 468.701,175.282 471.373,176.687 472.777 C 178.091 474.182,179.838 476.761,180.568 478.509 C 181.298 480.256,183.421 483.511,185.285 485.743 C 187.149 487.974,189.274 491.248,190.007 493.018 C 191.050 495.534,192.722 496.856,197.670 499.076 C 201.152 500.638,204.000 502.390,204.000 502.968 C 204.000 503.546,206.588 505.257,209.750 506.769 C 212.912 508.281,215.388 510.077,215.250 510.759 C 215.054 511.733,224.927 512.000,261.059 512.000 C 287.587 512.000,306.886 511.624,306.570 511.113 C 305.521 509.417,308.548 508.167,316.322 507.087 C 320.625 506.489,324.321 506.000,324.538 506.000 C 324.754 506.000,326.517 504.607,328.456 502.904 C 331.269 500.435,333.306 499.644,338.525 498.997 C 343.165 498.421,346.063 497.427,348.488 495.577 C 350.369 494.142,353.960 492.089,356.467 491.014 C 361.581 488.822,363.000 486.337,363.000 479.571 C 363.000 473.222,364.795 464.884,366.589 462.902 C 369.051 460.181,367.967 456.742,364.000 454.688 C 359.512 452.366,346.434 452.758,342.834 455.323 C 341.550 456.238,339.473 457.729,338.219 458.636 C 336.372 459.971,333.284 460.299,321.995 460.355 C 308.450 460.422,307.972 460.352,305.276 457.905 C 303.749 456.519,300.552 454.144,298.171 452.627 C 292.106 448.761,290.982 445.454,291.084 431.782 C 291.207 415.342,292.094 409.915,295.447 405.076 C 298.029 401.350,298.376 399.861,298.957 390.012 C 299.563 379.728,299.796 378.812,302.898 374.493 C 305.845 370.389,306.286 368.873,307.062 360.201 C 307.538 354.866,307.945 350.178,307.964 349.785 C 307.984 349.391,309.403 347.472,311.117 345.519 C 313.949 342.294,314.304 341.121,314.987 332.734 C 315.777 323.027,316.642 320.166,320.082 315.889 C 321.757 313.808,322.356 311.111,323.039 302.576 C 323.794 293.140,324.250 291.339,326.886 287.359 C 330.878 281.331,331.204 277.774,330.822 244.321 C 330.506 216.707,330.454 216.086,328.218 213.321 C 326.963 211.769,324.840 208.157,323.500 205.294 C 322.160 202.431,319.970 199.371,318.633 198.495 C 317.296 197.619,315.643 195.553,314.960 193.904 C 314.277 192.255,312.467 190.259,310.938 189.468 C 309.409 188.677,307.231 186.729,306.099 185.139 C 304.674 183.138,302.571 181.881,299.270 181.057 C 296.492 180.364,293.169 178.586,291.313 176.798 C 288.304 173.901,287.453 173.665,276.112 172.589 C 265.932 171.623,263.594 171.071,260.799 168.974 C 257.929 166.821,256.266 166.458,248.000 166.178 C 238.812 165.867,238.348 165.957,233.887 168.932 " stroke="none" fill="#64A4FD" fill-rule="evenodd"/></svg>
