<svg id="svg" version="1.1" width="512" height="512" xmlns="http://www.w3.org/2000/svg"><path d="M100.500 37.941 C 98.300 38.320,94.784 39.816,92.687 41.264 C 90.589 42.712,86.824 44.204,84.318 44.580 C 80.632 45.132,78.364 46.483,72.431 51.657 C 64.105 58.918,61.539 62.157,60.572 66.624 C 60.201 68.343,58.794 70.784,57.447 72.050 C 56.099 73.316,54.550 75.960,54.004 77.926 C 53.449 79.925,53.009 94.772,53.006 111.628 C 52.999 144.875,52.988 144.938,47.219 142.926 C 45.379 142.285,38.151 141.984,29.239 142.177 C 14.862 142.489,14.213 142.594,10.836 145.173 C 8.910 146.644,5.684 148.156,3.667 148.535 L 0.000 149.223 -0.000 186.643 C -0.000 219.515,0.188 224.135,1.550 224.657 C 2.402 224.984,4.175 226.836,5.490 228.771 C 6.806 230.707,9.447 233.237,11.359 234.395 C 13.271 235.553,16.477 237.813,18.482 239.417 C 21.871 242.130,23.118 242.427,36.257 243.661 C 44.029 244.391,50.863 245.462,51.444 246.041 C 52.079 246.675,52.699 255.040,53.000 267.014 C 53.436 284.374,53.729 287.163,55.283 288.717 C 56.813 290.247,59.310 290.545,72.905 290.817 C 90.686 291.173,95.225 290.169,97.006 285.483 C 97.630 283.842,98.000 256.712,98.000 212.557 C 98.000 157.512,98.271 142.026,99.250 141.236 C 99.938 140.682,106.523 139.804,113.885 139.287 C 127.123 138.356,127.298 138.312,129.885 135.265 C 131.323 133.571,133.873 131.503,135.552 130.669 C 139.169 128.873,147.000 120.645,147.000 118.641 C 147.000 117.869,148.319 115.946,149.931 114.369 C 151.544 112.791,153.344 110.233,153.931 108.685 C 155.413 104.782,155.377 52.920,153.890 49.657 C 153.279 48.317,151.759 46.756,150.513 46.188 C 149.266 45.620,146.691 43.789,144.789 42.120 C 142.888 40.451,139.345 38.627,136.916 38.067 C 132.035 36.942,106.796 36.854,100.500 37.941 M262.500 37.922 C 259.671 38.285,255.763 39.712,253.500 41.210 C 251.300 42.666,247.250 44.168,244.500 44.547 C 239.589 45.225,232.000 48.621,232.000 50.142 C 232.000 50.568,229.960 52.111,227.466 53.573 C 224.973 55.034,222.275 57.501,221.472 59.054 C 220.669 60.608,219.176 62.468,218.155 63.189 C 215.777 64.868,213.452 69.480,212.594 74.221 C 212.223 76.267,210.786 79.289,209.400 80.936 C 208.014 82.583,206.457 85.406,205.940 87.209 C 204.640 91.741,204.740 150.523,206.055 155.259 C 207.264 159.612,209.709 161.488,216.000 162.892 C 218.744 163.505,221.280 164.870,222.500 166.390 C 223.600 167.762,226.300 169.705,228.500 170.708 C 233.412 172.948,243.137 182.258,245.519 187.000 C 246.486 188.925,248.498 191.902,249.989 193.615 C 251.573 195.433,252.993 198.554,253.402 201.114 C 253.818 203.715,255.132 206.572,256.632 208.138 C 260.339 212.007,260.950 216.313,260.976 238.782 C 261.004 262.152,261.690 265.288,267.012 266.352 C 268.793 266.709,297.419 267.000,330.625 267.000 C 389.667 267.000,391.044 266.956,393.000 265.000 C 394.100 263.900,395.047 262.212,395.103 261.250 C 395.160 260.288,395.498 251.586,395.853 241.912 C 396.478 224.916,396.591 224.193,399.212 220.412 C 401.357 217.316,402.134 214.622,402.932 207.500 C 403.782 199.914,404.324 198.166,406.379 196.376 C 407.721 195.208,409.542 192.853,410.426 191.143 C 412.283 187.551,428.130 171.000,429.711 171.000 C 430.295 171.000,432.296 169.430,434.160 167.512 C 436.612 164.987,438.882 163.775,442.379 163.122 C 449.078 161.870,450.293 160.295,451.149 151.753 C 452.087 142.396,452.074 103.773,451.127 89.252 C 450.509 79.771,450.044 77.573,448.164 75.252 C 446.938 73.739,445.027 70.584,443.917 68.243 C 442.808 65.902,440.624 63.042,439.063 61.889 C 437.503 60.735,435.629 58.675,434.898 57.310 C 434.168 55.946,432.205 54.133,430.535 53.283 C 428.866 52.432,426.375 50.431,425.000 48.836 C 423.047 46.570,421.206 45.729,416.589 44.994 C 413.209 44.455,408.983 42.931,406.720 41.433 C 404.302 39.833,400.377 38.469,396.631 37.927 C 389.742 36.930,270.276 36.926,262.500 37.922 M167.370 174.403 C 165.649 175.173,163.903 176.347,163.492 177.013 C 163.081 177.679,160.351 179.282,157.426 180.575 C 153.206 182.441,151.323 184.096,148.304 188.588 C 140.784 199.779,140.887 199.447,141.207 211.605 C 141.537 224.117,141.270 223.587,154.000 236.944 C 159.059 242.253,159.935 242.765,164.923 243.331 C 167.906 243.670,170.678 244.296,171.082 244.723 C 171.486 245.151,172.011 268.225,172.248 296.000 C 172.502 325.751,173.084 347.482,173.663 348.889 C 174.727 351.472,177.380 354.675,186.123 363.928 C 191.063 369.157,192.519 370.078,198.123 371.520 C 201.630 372.423,205.489 374.081,206.697 375.205 C 207.905 376.329,210.830 377.624,213.197 378.081 C 219.438 379.287,439.528 379.227,445.907 378.018 C 448.756 377.477,452.530 375.958,454.294 374.642 C 456.057 373.326,459.815 371.710,462.644 371.050 C 466.712 370.102,469.030 368.665,473.728 364.176 C 480.535 357.673,481.599 355.962,483.592 348.306 C 484.388 345.253,486.042 341.347,487.269 339.627 C 489.479 336.529,489.505 336.068,490.034 290.500 C 490.328 265.200,490.666 244.419,490.784 244.321 C 490.903 244.222,493.422 243.639,496.382 243.024 C 500.614 242.146,502.547 241.062,505.423 237.954 C 507.435 235.779,509.737 234.000,510.540 234.000 C 511.777 234.000,512.000 230.554,512.000 211.475 L 512.000 188.950 509.586 188.033 C 508.258 187.528,506.864 186.148,506.489 184.966 C 506.114 183.784,504.388 182.219,502.654 181.488 C 500.919 180.757,498.019 178.829,496.209 177.204 C 492.267 173.664,488.949 173.024,474.500 173.017 C 461.850 173.010,457.288 174.000,454.042 177.455 C 452.582 179.009,449.725 180.330,446.277 181.046 C 443.248 181.675,440.016 183.073,439.011 184.189 C 436.029 187.500,435.633 187.874,432.250 190.579 C 430.462 192.008,429.000 193.700,429.000 194.339 C 429.000 194.978,427.435 196.850,425.522 198.500 C 422.580 201.037,421.897 202.451,421.091 207.666 C 420.232 213.227,419.452 215.196,415.265 222.381 C 414.363 223.927,414.025 232.255,414.015 253.193 C 414.000 281.703,413.986 281.897,411.777 283.443 C 409.811 284.821,400.275 285.000,328.843 285.000 C 279.639 285.000,247.143 284.625,245.603 284.039 L 243.075 283.078 242.788 248.723 L 242.500 214.369 238.750 208.926 C 236.688 205.932,235.000 202.723,235.000 201.793 C 235.000 200.864,230.872 196.027,225.827 191.044 C 218.781 184.085,215.709 181.746,212.577 180.958 C 207.440 179.665,205.221 178.607,201.681 175.764 C 199.089 173.683,197.715 173.480,184.681 173.251 C 174.234 173.068,169.676 173.372,167.370 174.403 M-0.000 331.481 L 0.000 354.000 72.532 354.000 C 153.492 354.000,150.756 354.223,153.604 347.404 C 155.938 341.818,155.248 313.813,152.715 311.283 C 151.038 309.609,146.326 309.484,75.465 309.231 L -0.000 308.963 -0.000 331.481 M-0.000 418.908 L -0.000 466.865 2.250 467.543 C 3.487 467.916,5.987 469.633,7.805 471.360 L 11.110 474.500 71.234 474.795 C 111.059 474.990,133.033 474.730,136.319 474.025 C 139.309 473.384,142.664 471.746,144.763 469.903 C 146.679 468.221,149.266 466.380,150.513 465.812 C 151.759 465.244,153.279 463.683,153.890 462.343 C 154.647 460.681,155.000 446.599,155.000 418.064 C 155.000 378.359,154.902 376.101,153.089 373.861 L 151.177 371.500 75.589 371.226 L -0.000 370.951 -0.000 418.908 M214.500 396.980 C 207.944 397.895,206.318 398.689,205.612 401.319 C 204.463 405.604,205.062 455.353,206.306 458.963 C 207.425 462.208,209.516 464.057,221.894 472.739 C 223.725 474.024,227.185 474.515,236.614 474.829 C 254.651 475.430,261.653 474.487,264.893 471.022 C 266.327 469.488,268.952 467.500,270.726 466.604 C 273.316 465.295,274.261 463.909,275.523 459.571 C 276.386 456.599,277.817 453.567,278.702 452.834 C 281.075 450.866,283.000 445.609,283.000 441.097 C 283.000 436.324,284.255 432.746,287.668 427.785 C 289.428 425.226,290.476 421.957,291.033 417.285 C 291.477 413.553,292.115 408.475,292.450 406.000 C 293.200 400.451,291.661 398.174,286.325 396.935 C 281.890 395.906,221.924 395.943,214.500 396.980 M372.626 396.914 C 366.560 397.792,365.000 399.778,365.000 406.626 C 365.000 412.746,366.134 416.182,369.455 420.129 C 371.102 422.086,372.053 424.784,372.489 428.740 C 373.530 438.176,374.004 439.730,376.977 443.472 C 378.900 445.891,380.032 448.737,380.479 452.273 C 381.538 460.669,382.899 463.897,386.070 465.536 C 387.667 466.362,390.442 468.327,392.237 469.903 C 396.818 473.925,401.698 474.988,415.610 474.994 C 432.287 475.002,436.548 474.299,439.856 470.990 C 441.351 469.495,444.007 467.530,445.758 466.625 C 451.299 463.760,451.417 463.043,451.460 432.000 C 451.482 416.325,451.166 402.312,450.759 400.860 C 450.351 399.408,449.226 397.842,448.259 397.380 C 446.097 396.347,379.388 395.936,372.626 396.914 " stroke="none" fill="#64A4FD" fill-rule="evenodd"/></svg>
